  0
SECTION
  2
HEADER
  9
$ACADVER
  1
AC1009
  9
$DWGCODEPAGE
  3
ansi_1252
  9
$INSBASE
 10
0.0
 20
0.0
 30
0.0
  9
$EXTMIN
 10
-0.377
 20
-0.139
 30
0.0
  9
$EXTMAX
 10
1.005
 20
1.205
 30
0.0
  9
$LIMMIN
 10
-0.377
 20
-0.139
  9
$LIMMAX
 10
1.005
 20
1.205
  9
$ORTHOMODE
 70
     0
  9
$REGENMODE
 70
     1
  9
$FILLMODE
 70
     1
  9
$QTEXTMODE
 70
     0
  9
$MIRRTEXT
 70
     1
  9
$DRAGMODE
 70
     2
  9
$LTSCALE
 40
1.0
  9
$OSMODE
 70
    37
  9
$ATTMODE
 70
     1
  9
$TEXTSIZE
 40
0.2
  9
$TRACEWID
 40
0.05
  9
$TEXTSTYLE
  7
STANDARD
  9
$CLAYER
  8
0
  9
$CELTYPE
  6
BYBLOCK
  9
$CECOLOR
 62
   256
  9
$DIMSCALE
 40
1.0
  9
$DIMASZ
 40
0.18
  9
$DIMEXO
 40
0.0625
  9
$DIMDLI
 40
0.38
  9
$DIMRND
 40
0.0
  9
$DIMDLE
 40
0.0
  9
$DIMEXE
 40
0.18
  9
$DIMTP
 40
0.0
  9
$DIMTM
 40
0.0
  9
$DIMTXT
 40
0.18
  9
$DIMCEN
 40
0.09
  9
$DIMTSZ
 40
0.0
  9
$DIMTOL
 70
     0
  9
$DIMLIM
 70
     0
  9
$DIMTIH
 70
     1
  9
$DIMTOH
 70
     1
  9
$DIMSE1
 70
     0
  9
$DIMSE2
 70
     0
  9
$DIMTAD
 70
     0
  9
$DIMZIN
 70
     0
  9
$DIMBLK
  1

  9
$DIMASO
 70
     1
  9
$DIMSHO
 70
     1
  9
$DIMPOST
  1

  9
$DIMAPOST
  1

  9
$DIMALT
 70
     0
  9
$DIMALTD
 70
     2
  9
$DIMALTF
 40
25.4
  9
$DIMLFAC
 40
1.0
  9
$DIMTOFL
 70
     0
  9
$DIMTVP
 40
0.0
  9
$DIMTIX
 70
     0
  9
$DIMSOXD
 70
     0
  9
$DIMSAH
 70
     0
  9
$DIMBLK1
  1

  9
$DIMBLK2
  1

  9
$DIMSTYLE
  2
STANDARD
  9
$DIMCLRD
 70
     0
  9
$DIMCLRE
 70
     0
  9
$DIMCLRT
 70
     0
  9
$DIMTFAC
 40
1.0
  9
$DIMGAP
 40
0.09
  9
$LUNITS
 70
     2
  9
$LUPREC
 70
     4
  9
$SKETCHINC
 40
0.1
  9
$FILLETRAD
 40
0.5
  9
$AUNITS
 70
     0
  9
$AUPREC
 70
     0
  9
$MENU
  1
.
  9
$ELEVATION
 40
0.0
  9
$PELEVATION
 40
0.0
  9
$THICKNESS
 40
0.0
  9
$LIMCHECK
 70
     0
  9
$CHAMFERA
 40
0.0
  9
$CHAMFERB
 40
0.0
  9
$SKPOLY
 70
     0
  9
$TDCREATE
 40
2457377.243296852
  9
$TDUPDATE
 40
2457377.244022766
  9
$TDINDWG
 40
0.0000000116
  9
$TDUSRTIMER
 40
0.0000000116
  9
$USRTIMER
 70
     1
  9
$ANGBASE
 50
0.0
  9
$ANGDIR
 70
     0
  9
$PDMODE
 70
     0
  9
$PDSIZE
 40
0.0
  9
$PLINEWID
 40
0.0
  9
$COORDS
 70
     1
  9
$SPLFRAME
 70
     0
  9
$SPLINETYPE
 70
     6
  9
$SPLINESEGS
 70
     8
  9
$ATTDIA
 70
     0
  9
$ATTREQ
 70
     1
  9
$HANDLING
 70
     1
  9
$HANDSEED
  5
865
  9
$SURFTAB1
 70
     6
  9
$SURFTAB2
 70
     6
  9
$SURFTYPE
 70
     6
  9
$SURFU
 70
     6
  9
$SURFV
 70
     6
  9
$UCSNAME
  2

  9
$UCSORG
 10
0.0
 20
0.0
 30
0.0
  9
$UCSXDIR
 10
1.0
 20
0.0
 30
0.0
  9
$UCSYDIR
 10
0.0
 20
1.0
 30
0.0
  9
$PUCSNAME
  2

  9
$PUCSORG
 10
0.0
 20
0.0
 30
0.0
  9
$PUCSXDIR
 10
1.0
 20
0.0
 30
0.0
  9
$PUCSYDIR
 10
0.0
 20
1.0
 30
0.0
  9
$USERI1
 70
     0
  9
$USERI2
 70
     0
  9
$USERI3
 70
     0
  9
$USERI4
 70
     0
  9
$USERI5
 70
     0
  9
$USERR1
 40
0.0
  9
$USERR2
 40
0.0
  9
$USERR3
 40
0.0
  9
$USERR4
 40
0.0
  9
$USERR5
 40
0.0
  9
$WORLDVIEW
 70
     1
  9
$SHADEDGE
 70
     3
  9
$SHADEDIF
 70
    70
  9
$TILEMODE
 70
     1
  9
$MAXACTVP
 70
    64
  9
$PLIMCHECK
 70
     0
  9
$PEXTMIN
 10
1.000000E+20
 20
1.000000E+20
 30
1.000000E+20
  9
$PEXTMAX
 10
-1.000000E+20
 20
-1.000000E+20
 30
-1.000000E+20
  9
$PLIMMIN
 10
0.0
 20
0.0
  9
$PLIMMAX
 10
12.0
 20
9.0
  9
$UNITMODE
 70
     0
  9
$VISRETAIN
 70
     1
  9
$PLINEGEN
 70
     0
  9
$PSLTSCALE
 70
     0
  0
ENDSEC
  0
SECTION
  2
TABLES
  0
TABLE
  2
VPORT
 70
     1
  0
VPORT
  2
*ACTIVE
 70
     0
 10
0.0
 20
0.0
 11
1.0
 21
1.0
 12
0.435082
 22
0.741641
 13
0.0
 23
0.0
 14
0.5
 24
0.5
 15
0.5
 25
0.5
 16
0.0
 26
0.0
 36
1.0
 17
0.0
 27
0.0
 37
0.0
 40
2.160326
 41
1.623601
 42
50.0
 43
0.0
 44
0.0
 50
0.0
 51
0.0
 71
    16
 72
   100
 73
     1
 74
     3
 75
     0
 76
     0
 77
     0
 78
     0
  0
ENDTAB
  0
TABLE
  2
LTYPE
 70
     1
  0
LTYPE
  2
CONTINUOUS
 70
     0
  3
Solid line
 72
    65
 73
     0
 40
0.0
  0
ENDTAB
  0
TABLE
  2
LAYER
 70
     4
  0
LAYER
  2
0
 70
     0
 62
     7
  6
CONTINUOUS
  0
LAYER
  2
GG1
 70
     0
 62
     1
  6
CONTINUOUS
  0
LAYER
  2
DEFPOINTS
 70
     0
 62
     7
  6
CONTINUOUS
  0
LAYER
  2
DIMENSION
 70
     0
 62
     3
  6
CONTINUOUS
  0
ENDTAB
  0
TABLE
  2
STYLE
 70
     1
  0
STYLE
  2
STANDARD
 70
     0
 40
0.0
 41
1.0
 50
0.0
 71
     0
 42
0.2
  3
txt
  4

  0
ENDTAB
  0
TABLE
  2
VIEW
 70
     0
  0
ENDTAB
  0
TABLE
  2
UCS
 70
     0
  0
ENDTAB
  0
TABLE
  2
APPID
 70
     6
  0
APPID
  2
ACAD
 70
     0
  0
APPID
  2
MCS_DIM1
 70
     0
  0
APPID
  2
MCSXDATA5
 70
     0
  0
APPID
  2
MCS_DOCUMENT_ID
 70
     0
  0
APPID
  2
MCS_PARAMS_DATA
 70
     0
  0
APPID
  2
MC_VERSION_DATA
 70
     0
  0
ENDTAB
  0
TABLE
  2
DIMSTYLE
 70
     1
  0
DIMSTYLE
  2
STANDARD
 70
     0
  3

  4

  5

  6

  7

 40
1.0
 41
0.18
 42
0.0625
 43
0.38
 44
0.18
 45
0.0
 46
0.0
 47
0.0
 48
0.0
140
0.18
141
0.09
142
0.0
143
25.4
144
1.0
145
0.0
146
1.0
147
0.09
 71
     0
 72
     0
 73
     1
 74
     1
 75
     0
 76
     0
 77
     0
 78
     0
170
     0
171
     2
172
     0
173
     0
174
     0
175
     0
176
     0
177
     0
178
     0
  0
ENDTAB
  0
ENDSEC
  0
SECTION
  2
BLOCKS
  0
BLOCK
  8
0
  2
$MODEL_SPACE
 70
     0
 10
0.0
 20
0.0
 30
0.0
  3
$MODEL_SPACE
  1

  0
ENDBLK
  5
47B
  8
0
  0
BLOCK
 67
     1
  8
0
  2
$PAPER_SPACE
 70
     0
 10
0.0
 20
0.0
 30
0.0
  3
$PAPER_SPACE
  1

  0
ENDBLK
  5
47D
 67
     1
  8
0
  0
BLOCK
  8
0
  2
D10
 70
     0
 10
0.0
 20
0.0
 30
0.0
  3
D10
  1

  0
CIRCLE
  5
2B
  8
0
 10
0.0
 20
0.0
 30
0.0
 40
0.005
  0
ENDBLK
  5
2C
  8
0
  0
BLOCK
  8
0
  2
D11
 70
     0
 10
0.0
 20
0.0
 30
0.0
  3
D11
  1

  0
CIRCLE
  5
2F
  8
0
 10
0.0
 20
0.0
 30
0.0
 40
0.003
  0
ENDBLK
  5
30
  8
0
  0
BLOCK
  8
0
  2
D12
 70
     0
 10
0.0
 20
0.0
 30
0.0
  3
D12
  1

  0
CIRCLE
  5
33
  8
0
 10
0.0
 20
0.0
 30
0.0
 40
0.0025
  0
ENDBLK
  5
34
  8
0
  0
BLOCK
  8
0
  2
*D3
 70
     1
 10
0.0
 20
0.0
 30
0.0
  3
*D3
  1

  0
LINE
  5
4A6
  8
DIMENSION
 62
     0
 10
0.8375
 20
1.1
 30
0.0
 11
0.72
 21
1.1
 31
0.0
  0
LINE
  5
4A7
  8
DIMENSION
 62
     0
 10
0.8375
 20
1.2
 30
0.0
 11
0.72
 21
1.2
 31
0.0
  0
LINE
  5
4A8
  8
DIMENSION
 62
     0
 10
0.9
 20
1.56
 30
0.0
 11
1.08
 21
1.56
 31
0.0
  0
LINE
  5
4A9
  8
DIMENSION
 62
     0
 10
0.9
 20
0.92
 30
0.0
 11
0.9
 21
0.74
 31
0.0
  0
LINE
  5
4AA
  8
DIMENSION
 62
     0
 10
0.9
 20
1.38
 30
0.0
 11
0.9
 21
1.56
 31
0.0
  0
SOLID
  5
4AB
  8
DIMENSION
 62
     0
 10
0.93
 20
0.92
 30
0.0
 11
0.87
 21
0.92
 31
0.0
 12
0.9
 22
1.1
 32
0.0
 13
0.9
 23
1.1
 33
0.0
  0
SOLID
  5
4AC
  8
DIMENSION
 62
     0
 10
0.87
 20
1.38
 30
0.0
 11
0.93
 21
1.38
 31
0.0
 12
0.9
 22
1.2
 32
0.0
 13
0.9
 23
1.2
 33
0.0
  0
TEXT
  5
4AD
  8
DIMENSION
  6
CONTINUOUS
 62
     0
 10
1.17
 20
1.47
 30
0.0
 40
0.18
  1
0.1000
  0
POINT
  5
4AE
  8
DEFPOINTS
 62
     0
 10
0.9
 20
1.1
 30
0.0
  0
POINT
  5
4AF
  8
DEFPOINTS
 62
     0
 10
0.9
 20
1.2
 30
0.0
  0
POINT
  5
4B3
  8
DEFPOINTS
 62
     0
 10
0.9
 20
1.2
 30
0.0
  0
ENDBLK
  5
4A5
  8
0
  0
BLOCK
  8
0
  2
*D4
 70
     1
 10
0.0
 20
0.0
 30
0.0
  3
*D4
  1

  0
LINE
  5
4B8
  8
DIMENSION
 62
     0
 10
0.838
 20
1.12154
 30
0.0
 11
1.018
 21
1.12154
 31
0.0
  0
LINE
  5
4B9
  8
DIMENSION
 62
     0
 10
1.0
 20
1.2625
 30
0.0
 11
1.0
 21
1.38
 31
0.0
  0
LINE
  5
4BA
  8
DIMENSION
 62
     0
 10
0.9
 20
1.1625
 30
0.0
 11
0.9
 21
1.28
 31
0.0
  0
ARC
  5
4BB
  8
DIMENSION
 62
     0
 10
0.9
 20
1.2
 30
0.0
 40
0.0999999999999999
 50
231.683866
 51
0.0
  0
ARC
  5
4BC
  8
DIMENSION
 62
     0
 10
0.9
 20
1.2
 30
0.0
 40
0.0999999999999999
 50
128.316134
 51
141.683866
  0
SOLID
  5
4BD
  8
DIMENSION
 62
     0
 10
0.824923
 20
1.25146
 30
0.0
 11
0.851077
 21
1.30546
 31
0.0
 12
1.0
 22
1.2
 32
0.0
 13
1.0
 23
1.2
 33
0.0
  0
SOLID
  5
4BE
  8
DIMENSION
 62
     0
 10
0.79454
 20
1.248923
 30
0.0
 11
0.84854
 21
1.275077
 31
0.0
 12
0.9
 22
1.1
 32
0.0
 13
0.9
 23
1.1
 33
0.0
  0
TEXT
  5
4BF
  8
DIMENSION
  6
CONTINUOUS
 62
     0
 10
1.108
 20
1.03154
 30
0.0
 40
0.18
  1
270°
  0
POINT
  5
4C0
  8
DEFPOINTS
 62
     0
 10
0.9
 20
1.2
 30
0.0
  0
POINT
  5
4C1
  8
DEFPOINTS
 62
     0
 10
1.0
 20
1.2
 30
0.0
  0
POINT
  5
4C2
  8
DEFPOINTS
 62
     0
 10
0.9
 20
1.1
 30
0.0
  0
POINT
  5
4C5
  8
DEFPOINTS
 62
     0
 10
0.8
 20
1.2
 30
0.0
  0
ENDBLK
  5
4B7
  8
0
  0
BLOCK
  8
0
  2
*D5
 70
     1
 10
0.0
 20
0.0
 30
0.0
  3
*D5
  1

  0
LINE
  5
4CA
  8
DIMENSION
 62
     0
 10
0.9625
 20
1.1
 30
0.0
 11
1.44
 21
1.1
 31
0.0
  0
LINE
  5
4CB
  8
DIMENSION
 62
     0
 10
0.9625
 20
1.2
 30
0.0
 11
1.44
 21
1.2
 31
0.0
  0
LINE
  5
4CC
  8
DIMENSION
 62
     0
 10
1.26
 20
1.56
 30
0.0
 11
1.44
 21
1.56
 31
0.0
  0
LINE
  5
4CD
  8
DIMENSION
 62
     0
 10
1.26
 20
0.92
 30
0.0
 11
1.26
 21
0.74
 31
0.0
  0
LINE
  5
4CE
  8
DIMENSION
 62
     0
 10
1.26
 20
1.38
 30
0.0
 11
1.26
 21
1.56
 31
0.0
  0
SOLID
  5
4CF
  8
DIMENSION
 62
     0
 10
1.29
 20
0.92
 30
0.0
 11
1.23
 21
0.92
 31
0.0
 12
1.26
 22
1.1
 32
0.0
 13
1.26
 23
1.1
 33
0.0
  0
SOLID
  5
4D0
  8
DIMENSION
 62
     0
 10
1.23
 20
1.38
 30
0.0
 11
1.29
 21
1.38
 31
0.0
 12
1.26
 22
1.2
 32
0.0
 13
1.26
 23
1.2
 33
0.0
  0
TEXT
  5
4D1
  8
DIMENSION
  6
CONTINUOUS
 62
     0
 10
1.53
 20
1.47
 30
0.0
 40
0.18
  1
0.1000
  0
POINT
  5
4D2
  8
DEFPOINTS
 62
     0
 10
0.9
 20
1.1
 30
0.0
  0
POINT
  5
4D3
  8
DEFPOINTS
 62
     0
 10
0.9
 20
1.2
 30
0.0
  0
POINT
  5
4D6
  8
DEFPOINTS
 62
     0
 10
1.26
 20
1.2
 30
0.0
  0
ENDBLK
  5
4C9
  8
0
  0
BLOCK
  8
0
  2
*D6
 70
     1
 10
0.0
 20
0.0
 30
0.0
  3
*D6
  1

  0
LINE
  5
4DB
  8
DIMENSION
 62
     0
 10
0.9
 20
1.1625
 30
0.0
 11
0.9
 21
1.28
 31
0.0
  0
LINE
  5
4DC
  8
DIMENSION
 62
     0
 10
1.0
 20
1.1625
 30
0.0
 11
1.0
 21
1.28
 31
0.0
  0
LINE
  5
4DD
  8
DIMENSION
 62
     0
 10
1.18
 20
1.1
 30
0.0
 11
1.36
 21
1.1
 31
0.0
  0
LINE
  5
4DE
  8
DIMENSION
 62
     0
 10
0.72
 20
1.1
 30
0.0
 11
0.54
 21
1.1
 31
0.0
  0
SOLID
  5
4DF
  8
DIMENSION
 62
     0
 10
0.72
 20
1.07
 30
0.0
 11
0.72
 21
1.13
 31
0.0
 12
0.9
 22
1.1
 32
0.0
 13
0.9
 23
1.1
 33
0.0
  0
SOLID
  5
4E0
  8
DIMENSION
 62
     0
 10
1.18
 20
1.13
 30
0.0
 11
1.18
 21
1.07
 31
0.0
 12
1.0
 22
1.1
 32
0.0
 13
1.0
 23
1.1
 33
0.0
  0
TEXT
  5
4E1
  8
DIMENSION
  6
CONTINUOUS
 62
     0
 10
1.45
 20
1.01
 30
0.0
 40
0.18
  1
0.1000
  0
POINT
  5
4E2
  8
DEFPOINTS
 62
     0
 10
0.9
 20
1.1
 30
0.0
  0
POINT
  5
4E3
  8
DEFPOINTS
 62
     0
 10
1.0
 20
1.1
 30
0.0
  0
POINT
  5
4E4
  8
DEFPOINTS
 62
     0
 10
1.0
 20
1.1
 30
0.0
  0
ENDBLK
  5
4DA
  8
0
  0
BLOCK
  8
0
  2
*D7
 70
     1
 10
0.0
 20
0.0
 30
0.0
  3
*D7
  1

  0
LINE
  5
4EC
  8
DIMENSION
 62
     0
 10
1.0
 20
1.1
 30
0.0
 11
0.82
 21
1.1
 31
0.0
  0
LINE
  5
4ED
  8
DIMENSION
 62
     0
 10
0.9625
 20
1.1
 30
0.0
 11
1.18
 21
1.1
 31
0.0
  0
LINE
  5
4EE
  8
DIMENSION
 62
     0
 10
1.0
 20
1.1625
 30
0.0
 11
1.0
 21
1.28
 31
0.0
  0
ARC
  5
4EF
  8
DIMENSION
 62
     0
 10
1.0
 20
1.1
 30
0.0
 40
0.0
 50
0.0
 51
180.0
  0
ARC
  5
4F0
  8
DIMENSION
 62
     0
 10
1.0
 20
1.1
 30
0.0
 40
0.0
 50
180.0
 51
0.0
  0
SOLID
  5
4F1
  8
DIMENSION
 62
     0
 10
1.03
 20
0.92
 30
0.0
 11
0.97
 21
0.92
 31
0.0
 12
1.0
 22
1.1
 32
0.0
 13
1.0
 23
1.1
 33
0.0
  0
SOLID
  5
4F2
  8
DIMENSION
 62
     0
 10
1.03
 20
0.92
 30
0.0
 11
0.97
 21
0.92
 31
0.0
 12
1.0
 22
1.1
 32
0.0
 13
1.0
 23
1.1
 33
0.0
  0
TEXT
  5
4F3
  8
DIMENSION
  6
CONTINUOUS
 62
     0
 10
0.52
 20
1.01
 30
0.0
 40
0.18
  1
0°
  0
POINT
  5
4F4
  8
DEFPOINTS
 62
     0
 10
1.0
 20
1.1
 30
0.0
  0
POINT
  5
4F5
  8
DEFPOINTS
 62
     0
 10
0.9
 20
1.1
 30
0.0
  0
POINT
  5
4F6
  8
DEFPOINTS
 62
     0
 10
1.0
 20
1.1
 30
0.0
  0
POINT
  5
4F9
  8
DEFPOINTS
 62
     0
 10
1.0
 20
1.1
 30
0.0
  0
ENDBLK
  5
4EB
  8
0
  0
BLOCK
  8
0
  2
*D8
 70
     1
 10
0.0
 20
0.0
 30
0.0
  3
*D8
  1

  0
LINE
  5
4FE
  8
DIMENSION
 62
     0
 10
0.9
 20
1.1625
 30
0.0
 11
0.9
 21
1.28
 31
0.0
  0
LINE
  5
4FF
  8
DIMENSION
 62
     0
 10
1.0
 20
1.1625
 30
0.0
 11
1.0
 21
1.28
 31
0.0
  0
LINE
  5
500
  8
DIMENSION
 62
     0
 10
1.18
 20
1.1
 30
0.0
 11
1.36
 21
1.1
 31
0.0
  0
LINE
  5
501
  8
DIMENSION
 62
     0
 10
0.72
 20
1.1
 30
0.0
 11
0.54
 21
1.1
 31
0.0
  0
SOLID
  5
502
  8
DIMENSION
 62
     0
 10
0.72
 20
1.07
 30
0.0
 11
0.72
 21
1.13
 31
0.0
 12
0.9
 22
1.1
 32
0.0
 13
0.9
 23
1.1
 33
0.0
  0
SOLID
  5
503
  8
DIMENSION
 62
     0
 10
1.18
 20
1.13
 30
0.0
 11
1.18
 21
1.07
 31
0.0
 12
1.0
 22
1.1
 32
0.0
 13
1.0
 23
1.1
 33
0.0
  0
TEXT
  5
504
  8
DIMENSION
  6
CONTINUOUS
 62
     0
 10
1.45
 20
1.01
 30
0.0
 40
0.18
  1
0.1000
  0
POINT
  5
505
  8
DEFPOINTS
 62
     0
 10
0.9
 20
1.1
 30
0.0
  0
POINT
  5
506
  8
DEFPOINTS
 62
     0
 10
1.0
 20
1.1
 30
0.0
  0
POINT
  5
507
  8
DEFPOINTS
 62
     0
 10
1.0
 20
1.1
 30
0.0
  0
ENDBLK
  5
4FD
  8
0
  0
BLOCK
  8
0
  2
*D9
 70
     1
 10
0.0
 20
0.0
 30
0.0
  3
*D9
  1

  0
LINE
  5
50E
  8
DIMENSION
 62
     0
 10
0.947982
 20
1.006724
 30
0.0
 11
1.127982
 21
1.006724
 31
0.0
  0
LINE
  5
50F
  8
DIMENSION
 62
     0
 10
0.9625
 20
1.2625
 30
0.0
 11
0.9625
 21
1.38
 31
0.0
  0
LINE
  5
510
  8
DIMENSION
 62
     0
 10
0.8375
 20
1.1
 30
0.0
 11
0.7132
 21
1.1
 31
0.0
  0
ARC
  5
511
  8
DIMENSION
 62
     0
 10
1.0
 20
1.1
 30
0.0
 40
0.106800046816469
 50
240.852274
 51
355.704159
  0
ARC
  5
512
  8
DIMENSION
 62
     0
 10
1.0
 20
1.1
 30
0.0
 40
0.106800046816469
 50
294.851886
 51
49.703771
  0
SOLID
  5
513
  8
DIMENSION
 62
     0
 10
1.1245
 20
1.116
 30
0.0
 11
1.0885
 21
1.068
 31
0.0
 12
0.9625
 22
1.2
 32
0.0
 13
0.9625
 23
1.2
 33
0.0
  0
SOLID
  5
514
  8
DIMENSION
 62
     0
 10
1.061037
 20
1.028371
 30
0.0
 11
1.028734
 21
0.977809
 31
0.0
 12
0.8932
 22
1.1
 32
0.0
 13
0.8932
 23
1.1
 33
0.0
  0
TEXT
  5
515
  8
DIMENSION
  6
CONTINUOUS
 62
     0
 10
1.217982
 20
0.916724
 30
0.0
 40
0.18
  1
69°
  0
POINT
  5
516
  8
DEFPOINTS
 62
     0
 10
1.0
 20
1.1
 30
0.0
  0
POINT
  5
517
  8
DEFPOINTS
 62
     0
 10
0.9625
 20
1.2
 30
0.0
  0
POINT
  5
518
  8
DEFPOINTS
 62
     0
 10
0.9
 20
1.1
 30
0.0
  0
POINT
  5
51B
  8
DEFPOINTS
 62
     0
 10
0.901798
 20
1.141984
 30
0.0
  0
ENDBLK
  5
50D
  8
0
  0
BLOCK
  8
0
  2
*D10
 70
     1
 10
0.0
 20
0.0
 30
0.0
  3
*D10
  1

  0
LINE
  5
520
  8
DIMENSION
 62
     0
 10
0.9
 20
1.0375
 30
0.0
 11
0.9
 21
0.56
 31
0.0
  0
LINE
  5
521
  8
DIMENSION
 62
     0
 10
1.0
 20
1.0375
 30
0.0
 11
1.0
 21
0.56
 31
0.0
  0
LINE
  5
522
  8
DIMENSION
 62
     0
 10
1.18
 20
0.74
 30
0.0
 11
1.36
 21
0.74
 31
0.0
  0
LINE
  5
523
  8
DIMENSION
 62
     0
 10
0.72
 20
0.74
 30
0.0
 11
0.54
 21
0.74
 31
0.0
  0
SOLID
  5
524
  8
DIMENSION
 62
     0
 10
0.72
 20
0.71
 30
0.0
 11
0.72
 21
0.77
 31
0.0
 12
0.9
 22
0.74
 32
0.0
 13
0.9
 23
0.74
 33
0.0
  0
SOLID
  5
525
  8
DIMENSION
 62
     0
 10
1.18
 20
0.77
 30
0.0
 11
1.18
 21
0.71
 31
0.0
 12
1.0
 22
0.74
 32
0.0
 13
1.0
 23
0.74
 33
0.0
  0
TEXT
  5
526
  8
DIMENSION
  6
CONTINUOUS
 62
     0
 10
1.45
 20
0.65
 30
0.0
 40
0.18
  1
0.1000
  0
POINT
  5
527
  8
DEFPOINTS
 62
     0
 10
0.9
 20
1.1
 30
0.0
  0
POINT
  5
528
  8
DEFPOINTS
 62
     0
 10
1.0
 20
1.1
 30
0.0
  0
POINT
  5
529
  8
DEFPOINTS
 62
     0
 10
1.0
 20
0.74
 30
0.0
  0
ENDBLK
  5
51F
  8
0
  0
ENDSEC
  0
SECTION
  2
ENTITIES
  0
POLYLINE
  5
35
  8
GG1
 62
     1
 66
     1
 10
0.0
 20
0.0
 30
0.0
  0
VERTEX
  5
538
  8
GG1
 62
     1
 10
-0.36
 20
1.2
 30
0.0
  0
VERTEX
  5
539
  8
GG1
 62
     1
 10
-0.015
 20
1.2
 30
0.0
  0
SEQEND
  5
76F
  8
GG1
 62
     1
  0
POLYLINE
  5
39
  8
GG1
 62
     1
 66
     1
 10
0.0
 20
0.0
 30
0.0
  0
VERTEX
  5
53A
  8
GG1
 62
     1
 10
-0.36
 20
0.0
 30
0.0
  0
VERTEX
  5
53B
  8
GG1
 62
     1
 10
-0.015
 20
0.0
 30
0.0
  0
SEQEND
  5
770
  8
GG1
 62
     1
  0
POLYLINE
  5
3D
  8
GG1
 62
     1
 66
     1
 10
0.0
 20
0.0
 30
0.0
  0
VERTEX
  5
53C
  8
GG1
 62
     1
 10
-0.35
 20
0.7799
 30
0.0
  0
VERTEX
  5
53D
  8
GG1
 62
     1
 10
-0.35
 20
1.2
 30
0.0
  0
SEQEND
  5
771
  8
GG1
 62
     1
  0
POLYLINE
  5
41
  8
GG1
 62
     1
 66
     1
 10
0.0
 20
0.0
 30
0.0
  0
VERTEX
  5
53E
  8
GG1
 62
     1
 10
-0.35
 20
0.0
 30
0.0
  0
VERTEX
  5
53F
  8
GG1
 62
     1
 10
-0.35
 20
0.3881
 30
0.0
  0
SEQEND
  5
772
  8
GG1
 62
     1
  0
POLYLINE
  5
45
  8
GG1
 62
     1
 66
     1
 10
0.0
 20
0.0
 30
0.0
  0
VERTEX
  5
540
  8
GG1
 62
     1
 10
-0.37
 20
1.14
 30
0.0
  0
VERTEX
  5
541
  8
GG1
 62
     1
 10
-0.35
 20
1.2
 30
0.0
  0
VERTEX
  5
542
  8
GG1
 62
     1
 10
-0.33
 20
1.14
 30
0.0
  0
SEQEND
  5
773
  8
GG1
 62
     1
  0
POLYLINE
  5
4A
  8
GG1
 62
     1
 66
     1
 10
0.0
 20
0.0
 30
0.0
  0
VERTEX
  5
543
  8
GG1
 62
     1
 10
-0.35
 20
0.0
 30
0.0
  0
VERTEX
  5
544
  8
GG1
 62
     1
 10
-0.33
 20
0.06
 30
0.0
  0
SEQEND
  5
774
  8
GG1
 62
     1
  0
POLYLINE
  5
4E
  8
GG1
 62
     1
 66
     1
 10
0.0
 20
0.0
 30
0.0
  0
VERTEX
  5
545
  8
GG1
 62
     1
 10
-0.37
 20
0.06
 30
0.0
  0
VERTEX
  5
546
  8
GG1
 62
     1
 10
-0.35
 20
0.0
 30
0.0
  0
SEQEND
  5
775
  8
GG1
 62
     1
  0
POLYLINE
  5
52
  8
GG1
 62
     1
 66
     1
 10
0.0
 20
0.0
 30
0.0
  0
VERTEX
  5
547
  8
GG1
 62
     1
 10
1.0
 20
-0.11
 30
0.0
  0
VERTEX
  5
548
  8
GG1
 62
     1
 10
1.0
 20
-0.015
 30
0.0
  0
SEQEND
  5
776
  8
GG1
 62
     1
  0
POLYLINE
  5
56
  8
GG1
 62
     1
 66
     1
 10
0.0
 20
0.0
 30
0.0
  0
VERTEX
  5
549
  8
GG1
 62
     1
 10
0.0
 20
-0.11
 30
0.0
  0
VERTEX
  5
54A
  8
GG1
 62
     1
 10
0.0
 20
-0.015
 30
0.0
  0
SEQEND
  5
777
  8
GG1
 62
     1
  0
POLYLINE
  5
5A
  8
GG1
 62
     1
 66
     1
 10
0.0
 20
0.0
 30
0.0
  0
VERTEX
  5
54B
  8
GG1
 62
     1
 10
0.6799
 20
-0.1
 30
0.0
  0
VERTEX
  5
54C
  8
GG1
 62
     1
 10
1.0
 20
-0.1
 30
0.0
  0
SEQEND
  5
778
  8
GG1
 62
     1
  0
POLYLINE
  5
5E
  8
GG1
 62
     1
 66
     1
 10
0.0
 20
0.0
 30
0.0
  0
VERTEX
  5
54D
  8
GG1
 62
     1
 10
0.0
 20
-0.1
 30
0.0
  0
VERTEX
  5
54E
  8
GG1
 62
     1
 10
0.2881
 20
-0.1
 30
0.0
  0
SEQEND
  5
779
  8
GG1
 62
     1
  0
POLYLINE
  5
62
  8
GG1
 62
     1
 66
     1
 10
0.0
 20
0.0
 30
0.0
  0
VERTEX
  5
54F
  8
GG1
 62
     1
 10
0.94
 20
-0.08
 30
0.0
  0
VERTEX
  5
550
  8
GG1
 62
     1
 10
1.0
 20
-0.1
 30
0.0
  0
SEQEND
  5
77A
  8
GG1
 62
     1
  0
POLYLINE
  5
66
  8
GG1
 62
     1
 66
     1
 10
0.0
 20
0.0
 30
0.0
  0
VERTEX
  5
551
  8
GG1
 62
     1
 10
0.94
 20
-0.12
 30
0.0
  0
VERTEX
  5
552
  8
GG1
 62
     1
 10
1.0
 20
-0.1
 30
0.0
  0
SEQEND
  5
77B
  8
GG1
 62
     1
  0
POLYLINE
  5
6A
  8
GG1
 62
     1
 66
     1
 10
0.0
 20
0.0
 30
0.0
  0
VERTEX
  5
553
  8
GG1
 62
     1
 10
0.0
 20
-0.1
 30
0.0
  0
VERTEX
  5
554
  8
GG1
 62
     1
 10
0.06
 20
-0.12
 30
0.0
  0
SEQEND
  5
77C
  8
GG1
 62
     1
  0
POLYLINE
  5
6E
  8
GG1
 62
     1
 66
     1
 10
0.0
 20
0.0
 30
0.0
  0
VERTEX
  5
555
  8
GG1
 62
     1
 10
0.0
 20
-0.1
 30
0.0
  0
VERTEX
  5
556
  8
GG1
 62
     1
 10
0.06
 20
-0.08
 30
0.0
  0
SEQEND
  5
77D
  8
GG1
 62
     1
  0
POLYLINE
  5
72
  8
GG1
 62
     1
 66
     1
 10
0.0
 20
0.0
 30
0.0
  0
VERTEX
  5
557
  8
GG1
 62
     1
 10
0.0
 20
0.0
 30
0.0
  0
VERTEX
  5
558
  8
GG1
 62
     1
 10
0.0
 20
1.2
 30
0.0
  0
VERTEX
  5
559
  8
GG1
 62
     1
 10
1.0
 20
1.2
 30
0.0
  0
SEQEND
  5
77E
  8
GG1
 62
     1
  0
POLYLINE
  5
77
  8
GG1
 62
     1
 66
     1
 10
0.0
 20
0.0
 30
0.0
  0
VERTEX
  5
55A
  8
GG1
 62
     1
 10
1.0
 20
0.0
 30
0.0
  0
VERTEX
  5
55B
  8
GG1
 62
     1
 10
1.0
 20
1.2
 30
0.0
  0
SEQEND
  5
77F
  8
GG1
 62
     1
  0
POLYLINE
  5
7B
  8
GG1
 62
     1
 66
     1
 10
0.0
 20
0.0
 30
0.0
  0
VERTEX
  5
55C
  8
GG1
 62
     1
 10
0.0
 20
0.0
 30
0.0
  0
VERTEX
  5
55D
  8
GG1
 62
     1
 10
1.0
 20
0.0
 30
0.0
  0
SEQEND
  5
780
  8
GG1
 62
     1
  0
POLYLINE
  5
7F
  8
GG1
 62
     1
 66
     1
 10
0.0
 20
0.0
 30
0.0
  0
VERTEX
  5
55E
  8
GG1
 62
     1
 10
-0.314
 20
0.4041
 30
0.0
  0
VERTEX
  5
55F
  8
GG1
 62
     1
 10
-0.314
 20
0.4241
 30
0.0
  0
VERTEX
  5
560
  8
GG1
 62
     1
 10
-0.314
 20
0.4141
 30
0.0
  0
VERTEX
  5
561
  8
GG1
 62
     1
 10
-0.374
 20
0.4141
 30
0.0
  0
VERTEX
  5
562
  8
GG1
 62
     1
 10
-0.364
 20
0.4041
 30
0.0
  0
SEQEND
  5
781
  8
GG1
 62
     1
  0
POLYLINE
  5
86
  8
GG1
 62
     1
 66
     1
 10
0.0
 20
0.0
 30
0.0
  0
VERTEX
  5
563
  8
GG1
 62
     1
 10
-0.314
 20
0.494
 30
0.0
  0
VERTEX
  5
564
  8
GG1
 62
     1
 10
-0.314
 20
0.454
 30
0.0
  0
VERTEX
  5
565
  8
GG1
 62
     1
 10
-0.354
 20
0.494
 30
0.0
  0
VERTEX
  5
566
  8
GG1
 62
     1
 10
-0.364
 20
0.494
 30
0.0
  0
VERTEX
  5
567
  8
GG1
 62
     1
 10
-0.374
 20
0.484
 30
0.0
  0
VERTEX
  5
568
  8
GG1
 62
     1
 10
-0.374
 20
0.464
 30
0.0
  0
VERTEX
  5
569
  8
GG1
 62
     1
 10
-0.364
 20
0.454
 30
0.0
  0
SEQEND
  5
782
  8
GG1
 62
     1
  0
POLYLINE
  5
8F
  8
GG1
 62
     1
 66
     1
 10
0.0
 20
0.0
 30
0.0
  0
VERTEX
  5
56A
  8
GG1
 62
     1
 10
-0.364
 20
0.514
 30
0.0
  0
VERTEX
  5
56B
  8
GG1
 62
     1
 10
-0.374
 20
0.524
 30
0.0
  0
VERTEX
  5
56C
  8
GG1
 62
     1
 10
-0.374
 20
0.544
 30
0.0
  0
VERTEX
  5
56D
  8
GG1
 62
     1
 10
-0.364
 20
0.554
 30
0.0
  0
VERTEX
  5
56E
  8
GG1
 62
     1
 10
-0.324
 20
0.554
 30
0.0
  0
VERTEX
  5
56F
  8
GG1
 62
     1
 10
-0.314
 20
0.544
 30
0.0
  0
VERTEX
  5
570
  8
GG1
 62
     1
 10
-0.314
 20
0.524
 30
0.0
  0
VERTEX
  5
571
  8
GG1
 62
     1
 10
-0.324
 20
0.514
 30
0.0
  0
VERTEX
  5
572
  8
GG1
 62
     1
 10
-0.364
 20
0.514
 30
0.0
  0
SEQEND
  5
783
  8
GG1
 62
     1
  0
POLYLINE
  5
9A
  8
GG1
 62
     1
 66
     1
 10
0.0
 20
0.0
 30
0.0
  0
VERTEX
  5
573
  8
GG1
 62
     1
 10
-0.364
 20
0.574
 30
0.0
  0
VERTEX
  5
574
  8
GG1
 62
     1
 10
-0.374
 20
0.584
 30
0.0
  0
VERTEX
  5
575
  8
GG1
 62
     1
 10
-0.374
 20
0.604
 30
0.0
  0
VERTEX
  5
576
  8
GG1
 62
     1
 10
-0.364
 20
0.614
 30
0.0
  0
VERTEX
  5
577
  8
GG1
 62
     1
 10
-0.324
 20
0.614
 30
0.0
  0
VERTEX
  5
578
  8
GG1
 62
     1
 10
-0.314
 20
0.604
 30
0.0
  0
VERTEX
  5
579
  8
GG1
 62
     1
 10
-0.314
 20
0.584
 30
0.0
  0
VERTEX
  5
57A
  8
GG1
 62
     1
 10
-0.324
 20
0.574
 30
0.0
  0
VERTEX
  5
57B
  8
GG1
 62
     1
 10
-0.364
 20
0.574
 30
0.0
  0
SEQEND
  5
784
  8
GG1
 62
     1
  0
POLYLINE
  5
A5
  8
GG1
 62
     1
 66
     1
 10
0.0
 20
0.0
 30
0.0
  0
VERTEX
  5
57C
  8
GG1
 62
     1
 10
-0.314
 20
0.634
 30
0.0
  0
VERTEX
  5
57D
  8
GG1
 62
     1
 10
-0.354
 20
0.634
 30
0.0
  0
VERTEX
  5
57E
  8
GG1
 62
     1
 10
-0.354
 20
0.644
 30
0.0
  0
VERTEX
  5
57F
  8
GG1
 62
     1
 10
-0.344
 20
0.654
 30
0.0
  0
VERTEX
  5
580
  8
GG1
 62
     1
 10
-0.314
 20
0.654
 30
0.0
  0
VERTEX
  5
581
  8
GG1
 62
     1
 10
-0.344
 20
0.654
 30
0.0
  0
VERTEX
  5
582
  8
GG1
 62
     1
 10
-0.354
 20
0.664
 30
0.0
  0
VERTEX
  5
583
  8
GG1
 62
     1
 10
-0.344
 20
0.674
 30
0.0
  0
VERTEX
  5
584
  8
GG1
 62
     1
 10
-0.314
 20
0.674
 30
0.0
  0
SEQEND
  5
785
  8
GG1
 62
     1
  0
POLYLINE
  5
B0
  8
GG1
 62
     1
 66
     1
 10
0.0
 20
0.0
 30
0.0
  0
VERTEX
  5
585
  8
GG1
 62
     1
 10
-0.314
 20
0.694
 30
0.0
  0
VERTEX
  5
586
  8
GG1
 62
     1
 10
-0.314
 20
0.714
 30
0.0
  0
VERTEX
  5
587
  8
GG1
 62
     1
 10
-0.314
 20
0.704
 30
0.0
  0
VERTEX
  5
588
  8
GG1
 62
     1
 10
-0.354
 20
0.704
 30
0.0
  0
VERTEX
  5
589
  8
GG1
 62
     1
 10
-0.354
 20
0.694
 30
0.0
  0
SEQEND
  5
786
  8
GG1
 62
     1
  0
POLYLINE
  5
B7
  8
GG1
 62
     1
 66
     1
 10
0.0
 20
0.0
 30
0.0
  0
VERTEX
  5
58A
  8
GG1
 62
     1
 10
-0.314
 20
0.7439
 30
0.0
  0
VERTEX
  5
58B
  8
GG1
 62
     1
 10
-0.314
 20
0.7639
 30
0.0
  0
VERTEX
  5
58C
  8
GG1
 62
     1
 10
-0.314
 20
0.7539
 30
0.0
  0
VERTEX
  5
58D
  8
GG1
 62
     1
 10
-0.374
 20
0.7539
 30
0.0
  0
VERTEX
  5
58E
  8
GG1
 62
     1
 10
-0.374
 20
0.7439
 30
0.0
  0
SEQEND
  5
787
  8
GG1
 62
     1
  0
POLYLINE
  5
BE
  8
GG1
 62
     1
 66
     1
 10
0.0
 20
0.0
 30
0.0
  0
VERTEX
  5
58F
  8
GG1
 62
     1
 10
0.3041
 20
-0.136
 30
0.0
  0
VERTEX
  5
590
  8
GG1
 62
     1
 10
0.3241
 20
-0.136
 30
0.0
  0
VERTEX
  5
591
  8
GG1
 62
     1
 10
0.3141
 20
-0.136
 30
0.0
  0
VERTEX
  5
592
  8
GG1
 62
     1
 10
0.3141
 20
-0.076
 30
0.0
  0
VERTEX
  5
593
  8
GG1
 62
     1
 10
0.3041
 20
-0.086
 30
0.0
  0
SEQEND
  5
788
  8
GG1
 62
     1
  0
POLYLINE
  5
C5
  8
GG1
 62
     1
 66
     1
 10
0.0
 20
0.0
 30
0.0
  0
VERTEX
  5
594
  8
GG1
 62
     1
 10
0.354
 20
-0.086
 30
0.0
  0
VERTEX
  5
595
  8
GG1
 62
     1
 10
0.364
 20
-0.076
 30
0.0
  0
VERTEX
  5
596
  8
GG1
 62
     1
 10
0.384
 20
-0.076
 30
0.0
  0
VERTEX
  5
597
  8
GG1
 62
     1
 10
0.394
 20
-0.086
 30
0.0
  0
VERTEX
  5
598
  8
GG1
 62
     1
 10
0.394
 20
-0.126
 30
0.0
  0
VERTEX
  5
599
  8
GG1
 62
     1
 10
0.384
 20
-0.136
 30
0.0
  0
VERTEX
  5
59A
  8
GG1
 62
     1
 10
0.364
 20
-0.136
 30
0.0
  0
VERTEX
  5
59B
  8
GG1
 62
     1
 10
0.354
 20
-0.126
 30
0.0
  0
VERTEX
  5
59C
  8
GG1
 62
     1
 10
0.354
 20
-0.086
 30
0.0
  0
SEQEND
  5
789
  8
GG1
 62
     1
  0
POLYLINE
  5
D0
  8
GG1
 62
     1
 66
     1
 10
0.0
 20
0.0
 30
0.0
  0
VERTEX
  5
59D
  8
GG1
 62
     1
 10
0.414
 20
-0.086
 30
0.0
  0
VERTEX
  5
59E
  8
GG1
 62
     1
 10
0.424
 20
-0.076
 30
0.0
  0
VERTEX
  5
59F
  8
GG1
 62
     1
 10
0.444
 20
-0.076
 30
0.0
  0
VERTEX
  5
5A0
  8
GG1
 62
     1
 10
0.454
 20
-0.086
 30
0.0
  0
VERTEX
  5
5A1
  8
GG1
 62
     1
 10
0.454
 20
-0.126
 30
0.0
  0
VERTEX
  5
5A2
  8
GG1
 62
     1
 10
0.444
 20
-0.136
 30
0.0
  0
VERTEX
  5
5A3
  8
GG1
 62
     1
 10
0.424
 20
-0.136
 30
0.0
  0
VERTEX
  5
5A4
  8
GG1
 62
     1
 10
0.414
 20
-0.126
 30
0.0
  0
VERTEX
  5
5A5
  8
GG1
 62
     1
 10
0.414
 20
-0.086
 30
0.0
  0
SEQEND
  5
78A
  8
GG1
 62
     1
  0
POLYLINE
  5
DB
  8
GG1
 62
     1
 66
     1
 10
0.0
 20
0.0
 30
0.0
  0
VERTEX
  5
5A6
  8
GG1
 62
     1
 10
0.474
 20
-0.086
 30
0.0
  0
VERTEX
  5
5A7
  8
GG1
 62
     1
 10
0.484
 20
-0.076
 30
0.0
  0
VERTEX
  5
5A8
  8
GG1
 62
     1
 10
0.504
 20
-0.076
 30
0.0
  0
VERTEX
  5
5A9
  8
GG1
 62
     1
 10
0.514
 20
-0.086
 30
0.0
  0
VERTEX
  5
5AA
  8
GG1
 62
     1
 10
0.514
 20
-0.126
 30
0.0
  0
VERTEX
  5
5AB
  8
GG1
 62
     1
 10
0.504
 20
-0.136
 30
0.0
  0
VERTEX
  5
5AC
  8
GG1
 62
     1
 10
0.484
 20
-0.136
 30
0.0
  0
VERTEX
  5
5AD
  8
GG1
 62
     1
 10
0.474
 20
-0.126
 30
0.0
  0
VERTEX
  5
5AE
  8
GG1
 62
     1
 10
0.474
 20
-0.086
 30
0.0
  0
SEQEND
  5
78B
  8
GG1
 62
     1
  0
POLYLINE
  5
E6
  8
GG1
 62
     1
 66
     1
 10
0.0
 20
0.0
 30
0.0
  0
VERTEX
  5
5AF
  8
GG1
 62
     1
 10
0.534
 20
-0.136
 30
0.0
  0
VERTEX
  5
5B0
  8
GG1
 62
     1
 10
0.534
 20
-0.096
 30
0.0
  0
VERTEX
  5
5B1
  8
GG1
 62
     1
 10
0.544
 20
-0.096
 30
0.0
  0
VERTEX
  5
5B2
  8
GG1
 62
     1
 10
0.554
 20
-0.106
 30
0.0
  0
VERTEX
  5
5B3
  8
GG1
 62
     1
 10
0.554
 20
-0.136
 30
0.0
  0
VERTEX
  5
5B4
  8
GG1
 62
     1
 10
0.554
 20
-0.106
 30
0.0
  0
VERTEX
  5
5B5
  8
GG1
 62
     1
 10
0.564
 20
-0.096
 30
0.0
  0
VERTEX
  5
5B6
  8
GG1
 62
     1
 10
0.574
 20
-0.106
 30
0.0
  0
VERTEX
  5
5B7
  8
GG1
 62
     1
 10
0.574
 20
-0.136
 30
0.0
  0
SEQEND
  5
78C
  8
GG1
 62
     1
  0
POLYLINE
  5
F1
  8
GG1
 62
     1
 66
     1
 10
0.0
 20
0.0
 30
0.0
  0
VERTEX
  5
5B8
  8
GG1
 62
     1
 10
0.594
 20
-0.136
 30
0.0
  0
VERTEX
  5
5B9
  8
GG1
 62
     1
 10
0.614
 20
-0.136
 30
0.0
  0
VERTEX
  5
5BA
  8
GG1
 62
     1
 10
0.604
 20
-0.136
 30
0.0
  0
VERTEX
  5
5BB
  8
GG1
 62
     1
 10
0.604
 20
-0.096
 30
0.0
  0
VERTEX
  5
5BC
  8
GG1
 62
     1
 10
0.594
 20
-0.096
 30
0.0
  0
SEQEND
  5
78D
  8
GG1
 62
     1
  0
POLYLINE
  5
F8
  8
GG1
 62
     1
 66
     1
 10
0.0
 20
0.0
 30
0.0
  0
VERTEX
  5
5BD
  8
GG1
 62
     1
 10
0.6439
 20
-0.136
 30
0.0
  0
VERTEX
  5
5BE
  8
GG1
 62
     1
 10
0.6639
 20
-0.136
 30
0.0
  0
VERTEX
  5
5BF
  8
GG1
 62
     1
 10
0.6539
 20
-0.136
 30
0.0
  0
VERTEX
  5
5C0
  8
GG1
 62
     1
 10
0.6539
 20
-0.076
 30
0.0
  0
VERTEX
  5
5C1
  8
GG1
 62
     1
 10
0.6439
 20
-0.076
 30
0.0
  0
SEQEND
  5
78E
  8
GG1
 62
     1
  0
POLYLINE
  5
FF
  8
GG1
 62
     1
 66
     1
 10
0.0
 20
0.0
 30
0.0
  0
VERTEX
  5
5C2
  8
GG1
 62
     1
 10
0.857
 20
1.1
 30
0.0
  0
VERTEX
  5
5C3
  8
GG1
 62
     1
 10
0.943
 20
1.1
 30
0.0
  0
SEQEND
  5
78F
  8
GG1
 62
     1
  0
POLYLINE
  5
103
  8
GG1
 62
     1
 66
     1
 10
0.0
 20
0.0
 30
0.0
  0
VERTEX
  5
5C4
  8
GG1
 62
     1
 10
0.9
 20
1.057
 30
0.0
  0
VERTEX
  5
5C5
  8
GG1
 62
     1
 10
0.9
 20
1.143
 30
0.0
  0
SEQEND
  5
790
  8
GG1
 62
     1
  0
POLYLINE
  5
107
  8
GG1
 62
     1
 66
     1
 10
0.0
 20
0.0
 30
0.0
  0
VERTEX
  5
5C6
  8
GG1
 62
     1
 10
0.857
 20
0.1
 30
0.0
  0
VERTEX
  5
5C7
  8
GG1
 62
     1
 10
0.943
 20
0.1
 30
0.0
  0
SEQEND
  5
791
  8
GG1
 62
     1
  0
POLYLINE
  5
10B
  8
GG1
 62
     1
 66
     1
 10
0.0
 20
0.0
 30
0.0
  0
VERTEX
  5
5C8
  8
GG1
 62
     1
 10
0.9
 20
0.057
 30
0.0
  0
VERTEX
  5
5C9
  8
GG1
 62
     1
 10
0.9
 20
0.143
 30
0.0
  0
SEQEND
  5
792
  8
GG1
 62
     1
  0
POLYLINE
  5
10F
  8
GG1
 62
     1
 66
     1
 10
0.0
 20
0.0
 30
0.0
  0
VERTEX
  5
5CA
  8
GG1
 62
     1
 10
0.03
 20
0.05
 30
0.0
  0
VERTEX
  5
5CB
  8
GG1
 62
     1
 10
0.07
 20
0.05
 30
0.0
  0
SEQEND
  5
793
  8
GG1
 62
     1
  0
POLYLINE
  5
113
  8
GG1
 62
     1
 66
     1
 10
0.0
 20
0.0
 30
0.0
  0
VERTEX
  5
5CC
  8
GG1
 62
     1
 10
0.05
 20
0.03
 30
0.0
  0
VERTEX
  5
5CD
  8
GG1
 62
     1
 10
0.05
 20
0.07
 30
0.0
  0
SEQEND
  5
794
  8
GG1
 62
     1
  0
POLYLINE
  5
117
  8
GG1
 62
     1
 66
     1
 10
0.0
 20
0.0
 30
0.0
  0
VERTEX
  5
5CE
  8
GG1
 62
     1
 10
0.03
 20
0.15
 30
0.0
  0
VERTEX
  5
5CF
  8
GG1
 62
     1
 10
0.07
 20
0.15
 30
0.0
  0
SEQEND
  5
795
  8
GG1
 62
     1
  0
POLYLINE
  5
11B
  8
GG1
 62
     1
 66
     1
 10
0.0
 20
0.0
 30
0.0
  0
VERTEX
  5
5D0
  8
GG1
 62
     1
 10
0.05
 20
0.13
 30
0.0
  0
VERTEX
  5
5D1
  8
GG1
 62
     1
 10
0.05
 20
0.17
 30
0.0
  0
SEQEND
  5
796
  8
GG1
 62
     1
  0
POLYLINE
  5
11F
  8
GG1
 62
     1
 66
     1
 10
0.0
 20
0.0
 30
0.0
  0
VERTEX
  5
5D2
  8
GG1
 62
     1
 10
0.03
 20
0.25
 30
0.0
  0
VERTEX
  5
5D3
  8
GG1
 62
     1
 10
0.07
 20
0.25
 30
0.0
  0
SEQEND
  5
797
  8
GG1
 62
     1
  0
POLYLINE
  5
123
  8
GG1
 62
     1
 66
     1
 10
0.0
 20
0.0
 30
0.0
  0
VERTEX
  5
5D4
  8
GG1
 62
     1
 10
0.05
 20
0.23
 30
0.0
  0
VERTEX
  5
5D5
  8
GG1
 62
     1
 10
0.05
 20
0.27
 30
0.0
  0
SEQEND
  5
798
  8
GG1
 62
     1
  0
POLYLINE
  5
127
  8
GG1
 62
     1
 66
     1
 10
0.0
 20
0.0
 30
0.0
  0
VERTEX
  5
5D6
  8
GG1
 62
     1
 10
0.03
 20
0.75
 30
0.0
  0
VERTEX
  5
5D7
  8
GG1
 62
     1
 10
0.07
 20
0.75
 30
0.0
  0
SEQEND
  5
799
  8
GG1
 62
     1
  0
POLYLINE
  5
12B
  8
GG1
 62
     1
 66
     1
 10
0.0
 20
0.0
 30
0.0
  0
VERTEX
  5
5D8
  8
GG1
 62
     1
 10
0.05
 20
0.73
 30
0.0
  0
VERTEX
  5
5D9
  8
GG1
 62
     1
 10
0.05
 20
0.77
 30
0.0
  0
SEQEND
  5
79A
  8
GG1
 62
     1
  0
POLYLINE
  5
12F
  8
GG1
 62
     1
 66
     1
 10
0.0
 20
0.0
 30
0.0
  0
VERTEX
  5
5DA
  8
GG1
 62
     1
 10
0.03
 20
0.85
 30
0.0
  0
VERTEX
  5
5DB
  8
GG1
 62
     1
 10
0.07
 20
0.85
 30
0.0
  0
SEQEND
  5
79B
  8
GG1
 62
     1
  0
POLYLINE
  5
133
  8
GG1
 62
     1
 66
     1
 10
0.0
 20
0.0
 30
0.0
  0
VERTEX
  5
5DC
  8
GG1
 62
     1
 10
0.05
 20
0.83
 30
0.0
  0
VERTEX
  5
5DD
  8
GG1
 62
     1
 10
0.05
 20
0.87
 30
0.0
  0
SEQEND
  5
79C
  8
GG1
 62
     1
  0
POLYLINE
  5
137
  8
GG1
 62
     1
 66
     1
 10
0.0
 20
0.0
 30
0.0
  0
VERTEX
  5
5DE
  8
GG1
 62
     1
 10
0.03
 20
0.95
 30
0.0
  0
VERTEX
  5
5DF
  8
GG1
 62
     1
 10
0.07
 20
0.95
 30
0.0
  0
SEQEND
  5
79D
  8
GG1
 62
     1
  0
POLYLINE
  5
13B
  8
GG1
 62
     1
 66
     1
 10
0.0
 20
0.0
 30
0.0
  0
VERTEX
  5
5E0
  8
GG1
 62
     1
 10
0.05
 20
0.93
 30
0.0
  0
VERTEX
  5
5E1
  8
GG1
 62
     1
 10
0.05
 20
0.97
 30
0.0
  0
SEQEND
  5
79E
  8
GG1
 62
     1
  0
POLYLINE
  5
13F
  8
GG1
 62
     1
 66
     1
 10
0.0
 20
0.0
 30
0.0
  0
VERTEX
  5
5E2
  8
GG1
 62
     1
 10
0.03
 20
1.05
 30
0.0
  0
VERTEX
  5
5E3
  8
GG1
 62
     1
 10
0.07
 20
1.05
 30
0.0
  0
SEQEND
  5
79F
  8
GG1
 62
     1
  0
POLYLINE
  5
143
  8
GG1
 62
     1
 66
     1
 10
0.0
 20
0.0
 30
0.0
  0
VERTEX
  5
5E4
  8
GG1
 62
     1
 10
0.05
 20
1.03
 30
0.0
  0
VERTEX
  5
5E5
  8
GG1
 62
     1
 10
0.05
 20
1.07
 30
0.0
  0
SEQEND
  5
7A0
  8
GG1
 62
     1
  0
POLYLINE
  5
147
  8
GG1
 62
     1
 66
     1
 10
0.0
 20
0.0
 30
0.0
  0
VERTEX
  5
5E6
  8
GG1
 62
     1
 10
0.03
 20
1.15
 30
0.0
  0
VERTEX
  5
5E7
  8
GG1
 62
     1
 10
0.07
 20
1.15
 30
0.0
  0
SEQEND
  5
7A1
  8
GG1
 62
     1
  0
POLYLINE
  5
14B
  8
GG1
 62
     1
 66
     1
 10
0.0
 20
0.0
 30
0.0
  0
VERTEX
  5
5E8
  8
GG1
 62
     1
 10
0.05
 20
1.13
 30
0.0
  0
VERTEX
  5
5E9
  8
GG1
 62
     1
 10
0.05
 20
1.17
 30
0.0
  0
SEQEND
  5
7A2
  8
GG1
 62
     1
  0
POLYLINE
  5
14F
  8
GG1
 62
     1
 66
     1
 10
0.0
 20
0.0
 30
0.0
  0
VERTEX
  5
5EA
  8
GG1
 62
     1
 10
0.03
 20
0.65
 30
0.0
  0
VERTEX
  5
5EB
  8
GG1
 62
     1
 10
0.07
 20
0.65
 30
0.0
  0
SEQEND
  5
7A3
  8
GG1
 62
     1
  0
POLYLINE
  5
153
  8
GG1
 62
     1
 66
     1
 10
0.0
 20
0.0
 30
0.0
  0
VERTEX
  5
5EC
  8
GG1
 62
     1
 10
0.05
 20
0.63
 30
0.0
  0
VERTEX
  5
5ED
  8
GG1
 62
     1
 10
0.05
 20
0.67
 30
0.0
  0
SEQEND
  5
7A4
  8
GG1
 62
     1
  0
POLYLINE
  5
157
  8
GG1
 62
     1
 66
     1
 10
0.0
 20
0.0
 30
0.0
  0
VERTEX
  5
5EE
  8
GG1
 62
     1
 10
0.03
 20
0.55
 30
0.0
  0
VERTEX
  5
5EF
  8
GG1
 62
     1
 10
0.07
 20
0.55
 30
0.0
  0
SEQEND
  5
7A5
  8
GG1
 62
     1
  0
POLYLINE
  5
15B
  8
GG1
 62
     1
 66
     1
 10
0.0
 20
0.0
 30
0.0
  0
VERTEX
  5
5F0
  8
GG1
 62
     1
 10
0.05
 20
0.53
 30
0.0
  0
VERTEX
  5
5F1
  8
GG1
 62
     1
 10
0.05
 20
0.57
 30
0.0
  0
SEQEND
  5
7A6
  8
GG1
 62
     1
  0
POLYLINE
  5
15F
  8
GG1
 62
     1
 66
     1
 10
0.0
 20
0.0
 30
0.0
  0
VERTEX
  5
5F2
  8
GG1
 62
     1
 10
0.03
 20
0.45
 30
0.0
  0
VERTEX
  5
5F3
  8
GG1
 62
     1
 10
0.07
 20
0.45
 30
0.0
  0
SEQEND
  5
7A7
  8
GG1
 62
     1
  0
POLYLINE
  5
163
  8
GG1
 62
     1
 66
     1
 10
0.0
 20
0.0
 30
0.0
  0
VERTEX
  5
5F4
  8
GG1
 62
     1
 10
0.05
 20
0.43
 30
0.0
  0
VERTEX
  5
5F5
  8
GG1
 62
     1
 10
0.05
 20
0.47
 30
0.0
  0
SEQEND
  5
7A8
  8
GG1
 62
     1
  0
POLYLINE
  5
167
  8
GG1
 62
     1
 66
     1
 10
0.0
 20
0.0
 30
0.0
  0
VERTEX
  5
5F6
  8
GG1
 62
     1
 10
0.03
 20
0.35
 30
0.0
  0
VERTEX
  5
5F7
  8
GG1
 62
     1
 10
0.07
 20
0.35
 30
0.0
  0
SEQEND
  5
7A9
  8
GG1
 62
     1
  0
POLYLINE
  5
16B
  8
GG1
 62
     1
 66
     1
 10
0.0
 20
0.0
 30
0.0
  0
VERTEX
  5
5F8
  8
GG1
 62
     1
 10
0.05
 20
0.33
 30
0.0
  0
VERTEX
  5
5F9
  8
GG1
 62
     1
 10
0.05
 20
0.37
 30
0.0
  0
SEQEND
  5
7AA
  8
GG1
 62
     1
  0
POLYLINE
  5
16F
  8
GG1
 62
     1
 66
     1
 10
0.0
 20
0.0
 30
0.0
  0
VERTEX
  5
5FA
  8
GG1
 62
     1
 10
0.8263
 20
0.2756
 30
0.0
  0
VERTEX
  5
5FB
  8
GG1
 62
     1
 10
0.8863
 20
0.2756
 30
0.0
  0
SEQEND
  5
7AB
  8
GG1
 62
     1
  0
POLYLINE
  5
173
  8
GG1
 62
     1
 66
     1
 10
0.0
 20
0.0
 30
0.0
  0
VERTEX
  5
5FC
  8
GG1
 62
     1
 10
0.8563
 20
0.2456
 30
0.0
  0
VERTEX
  5
5FD
  8
GG1
 62
     1
 10
0.8563
 20
0.3056
 30
0.0
  0
SEQEND
  5
7AC
  8
GG1
 62
     1
  0
POLYLINE
  5
177
  8
GG1
 62
     1
 66
     1
 10
0.0
 20
0.0
 30
0.0
  0
VERTEX
  5
5FE
  8
GG1
 62
     1
 10
0.8263
 20
0.4134
 30
0.0
  0
VERTEX
  5
5FF
  8
GG1
 62
     1
 10
0.8863
 20
0.4134
 30
0.0
  0
SEQEND
  5
7AD
  8
GG1
 62
     1
  0
POLYLINE
  5
17B
  8
GG1
 62
     1
 66
     1
 10
0.0
 20
0.0
 30
0.0
  0
VERTEX
  5
600
  8
GG1
 62
     1
 10
0.8563
 20
0.3834
 30
0.0
  0
VERTEX
  5
601
  8
GG1
 62
     1
 10
0.8563
 20
0.4434
 30
0.0
  0
SEQEND
  5
7AE
  8
GG1
 62
     1
  0
POLYLINE
  5
17F
  8
GG1
 62
     1
 66
     1
 10
0.0
 20
0.0
 30
0.0
  0
VERTEX
  5
602
  8
GG1
 62
     1
 10
0.8263
 20
0.689
 30
0.0
  0
VERTEX
  5
603
  8
GG1
 62
     1
 10
0.8863
 20
0.689
 30
0.0
  0
SEQEND
  5
7AF
  8
GG1
 62
     1
  0
POLYLINE
  5
183
  8
GG1
 62
     1
 66
     1
 10
0.0
 20
0.0
 30
0.0
  0
VERTEX
  5
604
  8
GG1
 62
     1
 10
0.8563
 20
0.659
 30
0.0
  0
VERTEX
  5
605
  8
GG1
 62
     1
 10
0.8563
 20
0.719
 30
0.0
  0
SEQEND
  5
7B0
  8
GG1
 62
     1
  0
POLYLINE
  5
187
  8
GG1
 62
     1
 66
     1
 10
0.0
 20
0.0
 30
0.0
  0
VERTEX
  5
606
  8
GG1
 62
     1
 10
0.8263
 20
0.5512
 30
0.0
  0
VERTEX
  5
607
  8
GG1
 62
     1
 10
0.8863
 20
0.5512
 30
0.0
  0
SEQEND
  5
7B1
  8
GG1
 62
     1
  0
POLYLINE
  5
18B
  8
GG1
 62
     1
 66
     1
 10
0.0
 20
0.0
 30
0.0
  0
VERTEX
  5
608
  8
GG1
 62
     1
 10
0.8563
 20
0.5212
 30
0.0
  0
VERTEX
  5
609
  8
GG1
 62
     1
 10
0.8563
 20
0.5812
 30
0.0
  0
SEQEND
  5
7B2
  8
GG1
 62
     1
  0
POLYLINE
  5
18F
  8
GG1
 62
     1
 66
     1
 10
0.0
 20
0.0
 30
0.0
  0
VERTEX
  5
60A
  8
GG1
 62
     1
 10
0.13
 20
0.65
 30
0.0
  0
VERTEX
  5
60B
  8
GG1
 62
     1
 10
0.17
 20
0.65
 30
0.0
  0
SEQEND
  5
7B3
  8
GG1
 62
     1
  0
POLYLINE
  5
193
  8
GG1
 62
     1
 66
     1
 10
0.0
 20
0.0
 30
0.0
  0
VERTEX
  5
60C
  8
GG1
 62
     1
 10
0.15
 20
0.63
 30
0.0
  0
VERTEX
  5
60D
  8
GG1
 62
     1
 10
0.15
 20
0.67
 30
0.0
  0
SEQEND
  5
7B4
  8
GG1
 62
     1
  0
POLYLINE
  5
197
  8
GG1
 62
     1
 66
     1
 10
0.0
 20
0.0
 30
0.0
  0
VERTEX
  5
60E
  8
GG1
 62
     1
 10
0.13
 20
0.25
 30
0.0
  0
VERTEX
  5
60F
  8
GG1
 62
     1
 10
0.17
 20
0.25
 30
0.0
  0
SEQEND
  5
7B5
  8
GG1
 62
     1
  0
POLYLINE
  5
19B
  8
GG1
 62
     1
 66
     1
 10
0.0
 20
0.0
 30
0.0
  0
VERTEX
  5
610
  8
GG1
 62
     1
 10
0.15
 20
0.23
 30
0.0
  0
VERTEX
  5
611
  8
GG1
 62
     1
 10
0.15
 20
0.27
 30
0.0
  0
SEQEND
  5
7B6
  8
GG1
 62
     1
  0
POLYLINE
  5
19F
  8
GG1
 62
     1
 66
     1
 10
0.0
 20
0.0
 30
0.0
  0
VERTEX
  5
612
  8
GG1
 62
     1
 10
0.13
 20
0.15
 30
0.0
  0
VERTEX
  5
613
  8
GG1
 62
     1
 10
0.17
 20
0.15
 30
0.0
  0
SEQEND
  5
7B7
  8
GG1
 62
     1
  0
POLYLINE
  5
1A3
  8
GG1
 62
     1
 66
     1
 10
0.0
 20
0.0
 30
0.0
  0
VERTEX
  5
614
  8
GG1
 62
     1
 10
0.15
 20
0.13
 30
0.0
  0
VERTEX
  5
615
  8
GG1
 62
     1
 10
0.15
 20
0.17
 30
0.0
  0
SEQEND
  5
7B8
  8
GG1
 62
     1
  0
POLYLINE
  5
1A7
  8
GG1
 62
     1
 66
     1
 10
0.0
 20
0.0
 30
0.0
  0
VERTEX
  5
616
  8
GG1
 62
     1
 10
0.13
 20
0.05
 30
0.0
  0
VERTEX
  5
617
  8
GG1
 62
     1
 10
0.17
 20
0.05
 30
0.0
  0
SEQEND
  5
7B9
  8
GG1
 62
     1
  0
POLYLINE
  5
1AB
  8
GG1
 62
     1
 66
     1
 10
0.0
 20
0.0
 30
0.0
  0
VERTEX
  5
618
  8
GG1
 62
     1
 10
0.15
 20
0.03
 30
0.0
  0
VERTEX
  5
619
  8
GG1
 62
     1
 10
0.15
 20
0.07
 30
0.0
  0
SEQEND
  5
7BA
  8
GG1
 62
     1
  0
POLYLINE
  5
1AF
  8
GG1
 62
     1
 66
     1
 10
0.0
 20
0.0
 30
0.0
  0
VERTEX
  5
61A
  8
GG1
 62
     1
 10
0.13
 20
0.55
 30
0.0
  0
VERTEX
  5
61B
  8
GG1
 62
     1
 10
0.17
 20
0.55
 30
0.0
  0
SEQEND
  5
7BB
  8
GG1
 62
     1
  0
POLYLINE
  5
1B3
  8
GG1
 62
     1
 66
     1
 10
0.0
 20
0.0
 30
0.0
  0
VERTEX
  5
61C
  8
GG1
 62
     1
 10
0.15
 20
0.53
 30
0.0
  0
VERTEX
  5
61D
  8
GG1
 62
     1
 10
0.15
 20
0.57
 30
0.0
  0
SEQEND
  5
7BC
  8
GG1
 62
     1
  0
POLYLINE
  5
1B7
  8
GG1
 62
     1
 66
     1
 10
0.0
 20
0.0
 30
0.0
  0
VERTEX
  5
61E
  8
GG1
 62
     1
 10
0.7975
 20
0.16
 30
0.0
  0
VERTEX
  5
61F
  8
GG1
 62
     1
 10
0.8125
 20
0.16
 30
0.0
  0
SEQEND
  5
7BD
  8
GG1
 62
     1
  0
POLYLINE
  5
1BB
  8
GG1
 62
     1
 66
     1
 10
0.0
 20
0.0
 30
0.0
  0
VERTEX
  5
620
  8
GG1
 62
     1
 10
0.805
 20
0.1525
 30
0.0
  0
VERTEX
  5
621
  8
GG1
 62
     1
 10
0.805
 20
0.1675
 30
0.0
  0
SEQEND
  5
7BE
  8
GG1
 62
     1
  0
POLYLINE
  5
1BF
  8
GG1
 62
     1
 66
     1
 10
0.0
 20
0.0
 30
0.0
  0
VERTEX
  5
622
  8
GG1
 62
     1
 10
0.8175
 20
0.185
 30
0.0
  0
VERTEX
  5
623
  8
GG1
 62
     1
 10
0.8325
 20
0.185
 30
0.0
  0
SEQEND
  5
7BF
  8
GG1
 62
     1
  0
POLYLINE
  5
1C3
  8
GG1
 62
     1
 66
     1
 10
0.0
 20
0.0
 30
0.0
  0
VERTEX
  5
624
  8
GG1
 62
     1
 10
0.825
 20
0.1775
 30
0.0
  0
VERTEX
  5
625
  8
GG1
 62
     1
 10
0.825
 20
0.1925
 30
0.0
  0
SEQEND
  5
7C0
  8
GG1
 62
     1
  0
POLYLINE
  5
1C7
  8
GG1
 62
     1
 66
     1
 10
0.0
 20
0.0
 30
0.0
  0
VERTEX
  5
626
  8
GG1
 62
     1
 10
0.7175
 20
0.14
 30
0.0
  0
VERTEX
  5
627
  8
GG1
 62
     1
 10
0.7325
 20
0.14
 30
0.0
  0
SEQEND
  5
7C1
  8
GG1
 62
     1
  0
POLYLINE
  5
1CB
  8
GG1
 62
     1
 66
     1
 10
0.0
 20
0.0
 30
0.0
  0
VERTEX
  5
628
  8
GG1
 62
     1
 10
0.725
 20
0.1325
 30
0.0
  0
VERTEX
  5
629
  8
GG1
 62
     1
 10
0.725
 20
0.1475
 30
0.0
  0
SEQEND
  5
7C2
  8
GG1
 62
     1
  0
POLYLINE
  5
1CF
  8
GG1
 62
     1
 66
     1
 10
0.0
 20
0.0
 30
0.0
  0
VERTEX
  5
62A
  8
GG1
 62
     1
 10
0.6925
 20
0.115
 30
0.0
  0
VERTEX
  5
62B
  8
GG1
 62
     1
 10
0.7075
 20
0.115
 30
0.0
  0
SEQEND
  5
7C3
  8
GG1
 62
     1
  0
POLYLINE
  5
1D3
  8
GG1
 62
     1
 66
     1
 10
0.0
 20
0.0
 30
0.0
  0
VERTEX
  5
62C
  8
GG1
 62
     1
 10
0.7
 20
0.1075
 30
0.0
  0
VERTEX
  5
62D
  8
GG1
 62
     1
 10
0.7
 20
0.1225
 30
0.0
  0
SEQEND
  5
7C4
  8
GG1
 62
     1
  0
POLYLINE
  5
1D7
  8
GG1
 62
     1
 66
     1
 10
0.0
 20
0.0
 30
0.0
  0
VERTEX
  5
62E
  8
GG1
 62
     1
 10
0.6625
 20
0.085
 30
0.0
  0
VERTEX
  5
62F
  8
GG1
 62
     1
 10
0.6775
 20
0.085
 30
0.0
  0
SEQEND
  5
7C5
  8
GG1
 62
     1
  0
POLYLINE
  5
1DB
  8
GG1
 62
     1
 66
     1
 10
0.0
 20
0.0
 30
0.0
  0
VERTEX
  5
630
  8
GG1
 62
     1
 10
0.67
 20
0.0775
 30
0.0
  0
VERTEX
  5
631
  8
GG1
 62
     1
 10
0.67
 20
0.0925
 30
0.0
  0
SEQEND
  5
7C6
  8
GG1
 62
     1
  0
POLYLINE
  5
1DF
  8
GG1
 62
     1
 66
     1
 10
0.0
 20
0.0
 30
0.0
  0
VERTEX
  5
632
  8
GG1
 62
     1
 10
0.6375
 20
0.06
 30
0.0
  0
VERTEX
  5
633
  8
GG1
 62
     1
 10
0.6525
 20
0.06
 30
0.0
  0
SEQEND
  5
7C7
  8
GG1
 62
     1
  0
POLYLINE
  5
1E3
  8
GG1
 62
     1
 66
     1
 10
0.0
 20
0.0
 30
0.0
  0
VERTEX
  5
634
  8
GG1
 62
     1
 10
0.645
 20
0.0525
 30
0.0
  0
VERTEX
  5
635
  8
GG1
 62
     1
 10
0.645
 20
0.0675
 30
0.0
  0
SEQEND
  5
7C8
  8
GG1
 62
     1
  0
POLYLINE
  5
1E7
  8
GG1
 62
     1
 66
     1
 10
0.0
 20
0.0
 30
0.0
  0
VERTEX
  5
636
  8
GG1
 62
     1
 10
0.5975
 20
0.06
 30
0.0
  0
VERTEX
  5
637
  8
GG1
 62
     1
 10
0.6125
 20
0.06
 30
0.0
  0
SEQEND
  5
7C9
  8
GG1
 62
     1
  0
POLYLINE
  5
1EB
  8
GG1
 62
     1
 66
     1
 10
0.0
 20
0.0
 30
0.0
  0
VERTEX
  5
638
  8
GG1
 62
     1
 10
0.605
 20
0.0525
 30
0.0
  0
VERTEX
  5
639
  8
GG1
 62
     1
 10
0.605
 20
0.0675
 30
0.0
  0
SEQEND
  5
7CA
  8
GG1
 62
     1
  0
POLYLINE
  5
1EF
  8
GG1
 62
     1
 66
     1
 10
0.0
 20
0.0
 30
0.0
  0
VERTEX
  5
63A
  8
GG1
 62
     1
 10
0.6275
 20
0.09
 30
0.0
  0
VERTEX
  5
63B
  8
GG1
 62
     1
 10
0.6425
 20
0.09
 30
0.0
  0
SEQEND
  5
7CB
  8
GG1
 62
     1
  0
POLYLINE
  5
1F3
  8
GG1
 62
     1
 66
     1
 10
0.0
 20
0.0
 30
0.0
  0
VERTEX
  5
63C
  8
GG1
 62
     1
 10
0.635
 20
0.0825
 30
0.0
  0
VERTEX
  5
63D
  8
GG1
 62
     1
 10
0.635
 20
0.0975
 30
0.0
  0
SEQEND
  5
7CC
  8
GG1
 62
     1
  0
POLYLINE
  5
1F7
  8
GG1
 62
     1
 66
     1
 10
0.0
 20
0.0
 30
0.0
  0
VERTEX
  5
63E
  8
GG1
 62
     1
 10
0.6575
 20
0.12
 30
0.0
  0
VERTEX
  5
63F
  8
GG1
 62
     1
 10
0.6725
 20
0.12
 30
0.0
  0
SEQEND
  5
7CD
  8
GG1
 62
     1
  0
POLYLINE
  5
1FB
  8
GG1
 62
     1
 66
     1
 10
0.0
 20
0.0
 30
0.0
  0
VERTEX
  5
640
  8
GG1
 62
     1
 10
0.665
 20
0.1125
 30
0.0
  0
VERTEX
  5
641
  8
GG1
 62
     1
 10
0.665
 20
0.1275
 30
0.0
  0
SEQEND
  5
7CE
  8
GG1
 62
     1
  0
POLYLINE
  5
1FF
  8
GG1
 62
     1
 66
     1
 10
0.0
 20
0.0
 30
0.0
  0
VERTEX
  5
642
  8
GG1
 62
     1
 10
0.6875
 20
0.15
 30
0.0
  0
VERTEX
  5
643
  8
GG1
 62
     1
 10
0.7025
 20
0.15
 30
0.0
  0
SEQEND
  5
7CF
  8
GG1
 62
     1
  0
POLYLINE
  5
203
  8
GG1
 62
     1
 66
     1
 10
0.0
 20
0.0
 30
0.0
  0
VERTEX
  5
644
  8
GG1
 62
     1
 10
0.695
 20
0.1425
 30
0.0
  0
VERTEX
  5
645
  8
GG1
 62
     1
 10
0.695
 20
0.1575
 30
0.0
  0
SEQEND
  5
7D0
  8
GG1
 62
     1
  0
POLYLINE
  5
207
  8
GG1
 62
     1
 66
     1
 10
0.0
 20
0.0
 30
0.0
  0
VERTEX
  5
646
  8
GG1
 62
     1
 10
0.7175
 20
0.18
 30
0.0
  0
VERTEX
  5
647
  8
GG1
 62
     1
 10
0.7325
 20
0.18
 30
0.0
  0
SEQEND
  5
7D1
  8
GG1
 62
     1
  0
POLYLINE
  5
20B
  8
GG1
 62
     1
 66
     1
 10
0.0
 20
0.0
 30
0.0
  0
VERTEX
  5
648
  8
GG1
 62
     1
 10
0.725
 20
0.1725
 30
0.0
  0
VERTEX
  5
649
  8
GG1
 62
     1
 10
0.725
 20
0.1875
 30
0.0
  0
SEQEND
  5
7D2
  8
GG1
 62
     1
  0
POLYLINE
  5
20F
  8
GG1
 62
     1
 66
     1
 10
0.0
 20
0.0
 30
0.0
  0
VERTEX
  5
64A
  8
GG1
 62
     1
 10
0.4625
 20
0.84
 30
0.0
  0
VERTEX
  5
64B
  8
GG1
 62
     1
 10
0.4775
 20
0.84
 30
0.0
  0
SEQEND
  5
7D3
  8
GG1
 62
     1
  0
POLYLINE
  5
213
  8
GG1
 62
     1
 66
     1
 10
0.0
 20
0.0
 30
0.0
  0
VERTEX
  5
64C
  8
GG1
 62
     1
 10
0.47
 20
0.8325
 30
0.0
  0
VERTEX
  5
64D
  8
GG1
 62
     1
 10
0.47
 20
0.8475
 30
0.0
  0
SEQEND
  5
7D4
  8
GG1
 62
     1
  0
POLYLINE
  5
217
  8
GG1
 62
     1
 66
     1
 10
0.0
 20
0.0
 30
0.0
  0
VERTEX
  5
64E
  8
GG1
 62
     1
 10
0.4875
 20
0.805
 30
0.0
  0
VERTEX
  5
64F
  8
GG1
 62
     1
 10
0.5025
 20
0.805
 30
0.0
  0
SEQEND
  5
7D5
  8
GG1
 62
     1
  0
POLYLINE
  5
21B
  8
GG1
 62
     1
 66
     1
 10
0.0
 20
0.0
 30
0.0
  0
VERTEX
  5
650
  8
GG1
 62
     1
 10
0.495
 20
0.7975
 30
0.0
  0
VERTEX
  5
651
  8
GG1
 62
     1
 10
0.495
 20
0.8125
 30
0.0
  0
SEQEND
  5
7D6
  8
GG1
 62
     1
  0
POLYLINE
  5
21F
  8
GG1
 62
     1
 66
     1
 10
0.0
 20
0.0
 30
0.0
  0
VERTEX
  5
652
  8
GG1
 62
     1
 10
0.4475
 20
0.805
 30
0.0
  0
VERTEX
  5
653
  8
GG1
 62
     1
 10
0.4625
 20
0.805
 30
0.0
  0
SEQEND
  5
7D7
  8
GG1
 62
     1
  0
POLYLINE
  5
223
  8
GG1
 62
     1
 66
     1
 10
0.0
 20
0.0
 30
0.0
  0
VERTEX
  5
654
  8
GG1
 62
     1
 10
0.455
 20
0.7975
 30
0.0
  0
VERTEX
  5
655
  8
GG1
 62
     1
 10
0.455
 20
0.8125
 30
0.0
  0
SEQEND
  5
7D8
  8
GG1
 62
     1
  0
POLYLINE
  5
227
  8
GG1
 62
     1
 66
     1
 10
0.0
 20
0.0
 30
0.0
  0
VERTEX
  5
656
  8
GG1
 62
     1
 10
0.4475
 20
0.76
 30
0.0
  0
VERTEX
  5
657
  8
GG1
 62
     1
 10
0.4625
 20
0.76
 30
0.0
  0
SEQEND
  5
7D9
  8
GG1
 62
     1
  0
POLYLINE
  5
22B
  8
GG1
 62
     1
 66
     1
 10
0.0
 20
0.0
 30
0.0
  0
VERTEX
  5
658
  8
GG1
 62
     1
 10
0.455
 20
0.7525
 30
0.0
  0
VERTEX
  5
659
  8
GG1
 62
     1
 10
0.455
 20
0.7675
 30
0.0
  0
SEQEND
  5
7DA
  8
GG1
 62
     1
  0
POLYLINE
  5
22F
  8
GG1
 62
     1
 66
     1
 10
0.0
 20
0.0
 30
0.0
  0
VERTEX
  5
65A
  8
GG1
 62
     1
 10
0.5525
 20
0.805
 30
0.0
  0
VERTEX
  5
65B
  8
GG1
 62
     1
 10
0.5675
 20
0.805
 30
0.0
  0
SEQEND
  5
7DB
  8
GG1
 62
     1
  0
POLYLINE
  5
233
  8
GG1
 62
     1
 66
     1
 10
0.0
 20
0.0
 30
0.0
  0
VERTEX
  5
65C
  8
GG1
 62
     1
 10
0.56
 20
0.7975
 30
0.0
  0
VERTEX
  5
65D
  8
GG1
 62
     1
 10
0.56
 20
0.8125
 30
0.0
  0
SEQEND
  5
7DC
  8
GG1
 62
     1
  0
POLYLINE
  5
237
  8
GG1
 62
     1
 66
     1
 10
0.0
 20
0.0
 30
0.0
  0
VERTEX
  5
65E
  8
GG1
 62
     1
 10
0.5175
 20
0.785
 30
0.0
  0
VERTEX
  5
65F
  8
GG1
 62
     1
 10
0.5325
 20
0.785
 30
0.0
  0
SEQEND
  5
7DD
  8
GG1
 62
     1
  0
POLYLINE
  5
23B
  8
GG1
 62
     1
 66
     1
 10
0.0
 20
0.0
 30
0.0
  0
VERTEX
  5
660
  8
GG1
 62
     1
 10
0.525
 20
0.7775
 30
0.0
  0
VERTEX
  5
661
  8
GG1
 62
     1
 10
0.525
 20
0.7925
 30
0.0
  0
SEQEND
  5
7DE
  8
GG1
 62
     1
  0
POLYLINE
  5
23F
  8
GG1
 62
     1
 66
     1
 10
0.0
 20
0.0
 30
0.0
  0
VERTEX
  5
662
  8
GG1
 62
     1
 10
0.4925
 20
0.76
 30
0.0
  0
VERTEX
  5
663
  8
GG1
 62
     1
 10
0.5075
 20
0.76
 30
0.0
  0
SEQEND
  5
7DF
  8
GG1
 62
     1
  0
POLYLINE
  5
243
  8
GG1
 62
     1
 66
     1
 10
0.0
 20
0.0
 30
0.0
  0
VERTEX
  5
664
  8
GG1
 62
     1
 10
0.5
 20
0.7525
 30
0.0
  0
VERTEX
  5
665
  8
GG1
 62
     1
 10
0.5
 20
0.7675
 30
0.0
  0
SEQEND
  5
7E0
  8
GG1
 62
     1
  0
POLYLINE
  5
247
  8
GG1
 62
     1
 66
     1
 10
0.0
 20
0.0
 30
0.0
  0
VERTEX
  5
666
  8
GG1
 62
     1
 10
0.4625
 20
0.73
 30
0.0
  0
VERTEX
  5
667
  8
GG1
 62
     1
 10
0.4775
 20
0.73
 30
0.0
  0
SEQEND
  5
7E1
  8
GG1
 62
     1
  0
POLYLINE
  5
24B
  8
GG1
 62
     1
 66
     1
 10
0.0
 20
0.0
 30
0.0
  0
VERTEX
  5
668
  8
GG1
 62
     1
 10
0.47
 20
0.7225
 30
0.0
  0
VERTEX
  5
669
  8
GG1
 62
     1
 10
0.47
 20
0.7375
 30
0.0
  0
SEQEND
  5
7E2
  8
GG1
 62
     1
  0
POLYLINE
  5
24F
  8
GG1
 62
     1
 66
     1
 10
0.0
 20
0.0
 30
0.0
  0
VERTEX
  5
66A
  8
GG1
 62
     1
 10
0.4375
 20
0.705
 30
0.0
  0
VERTEX
  5
66B
  8
GG1
 62
     1
 10
0.4525
 20
0.705
 30
0.0
  0
SEQEND
  5
7E3
  8
GG1
 62
     1
  0
POLYLINE
  5
253
  8
GG1
 62
     1
 66
     1
 10
0.0
 20
0.0
 30
0.0
  0
VERTEX
  5
66C
  8
GG1
 62
     1
 10
0.445
 20
0.6975
 30
0.0
  0
VERTEX
  5
66D
  8
GG1
 62
     1
 10
0.445
 20
0.7125
 30
0.0
  0
SEQEND
  5
7E4
  8
GG1
 62
     1
  0
POLYLINE
  5
257
  8
GG1
 62
     1
 66
     1
 10
0.0
 20
0.0
 30
0.0
  0
VERTEX
  5
66E
  8
GG1
 62
     1
 10
0.3975
 20
0.705
 30
0.0
  0
VERTEX
  5
66F
  8
GG1
 62
     1
 10
0.4125
 20
0.705
 30
0.0
  0
SEQEND
  5
7E5
  8
GG1
 62
     1
  0
POLYLINE
  5
25B
  8
GG1
 62
     1
 66
     1
 10
0.0
 20
0.0
 30
0.0
  0
VERTEX
  5
670
  8
GG1
 62
     1
 10
0.405
 20
0.6975
 30
0.0
  0
VERTEX
  5
671
  8
GG1
 62
     1
 10
0.405
 20
0.7125
 30
0.0
  0
SEQEND
  5
7E6
  8
GG1
 62
     1
  0
POLYLINE
  5
25F
  8
GG1
 62
     1
 66
     1
 10
0.0
 20
0.0
 30
0.0
  0
VERTEX
  5
672
  8
GG1
 62
     1
 10
0.6475
 20
0.855
 30
0.0
  0
VERTEX
  5
673
  8
GG1
 62
     1
 10
0.6625
 20
0.855
 30
0.0
  0
SEQEND
  5
7E7
  8
GG1
 62
     1
  0
POLYLINE
  5
263
  8
GG1
 62
     1
 66
     1
 10
0.0
 20
0.0
 30
0.0
  0
VERTEX
  5
674
  8
GG1
 62
     1
 10
0.655
 20
0.8475
 30
0.0
  0
VERTEX
  5
675
  8
GG1
 62
     1
 10
0.655
 20
0.8625
 30
0.0
  0
SEQEND
  5
7E8
  8
GG1
 62
     1
  0
POLYLINE
  5
267
  8
GG1
 62
     1
 66
     1
 10
0.0
 20
0.0
 30
0.0
  0
VERTEX
  5
676
  8
GG1
 62
     1
 10
0.6325
 20
0.88
 30
0.0
  0
VERTEX
  5
677
  8
GG1
 62
     1
 10
0.6475
 20
0.88
 30
0.0
  0
SEQEND
  5
7E9
  8
GG1
 62
     1
  0
POLYLINE
  5
26B
  8
GG1
 62
     1
 66
     1
 10
0.0
 20
0.0
 30
0.0
  0
VERTEX
  5
678
  8
GG1
 62
     1
 10
0.64
 20
0.8725
 30
0.0
  0
VERTEX
  5
679
  8
GG1
 62
     1
 10
0.64
 20
0.8875
 30
0.0
  0
SEQEND
  5
7EA
  8
GG1
 62
     1
  0
POLYLINE
  5
26F
  8
GG1
 62
     1
 66
     1
 10
0.0
 20
0.0
 30
0.0
  0
VERTEX
  5
67A
  8
GG1
 62
     1
 10
0.6175
 20
0.855
 30
0.0
  0
VERTEX
  5
67B
  8
GG1
 62
     1
 10
0.6325
 20
0.855
 30
0.0
  0
SEQEND
  5
7EB
  8
GG1
 62
     1
  0
POLYLINE
  5
273
  8
GG1
 62
     1
 66
     1
 10
0.0
 20
0.0
 30
0.0
  0
VERTEX
  5
67C
  8
GG1
 62
     1
 10
0.625
 20
0.8475
 30
0.0
  0
VERTEX
  5
67D
  8
GG1
 62
     1
 10
0.625
 20
0.8625
 30
0.0
  0
SEQEND
  5
7EC
  8
GG1
 62
     1
  0
POLYLINE
  5
277
  8
GG1
 62
     1
 66
     1
 10
0.0
 20
0.0
 30
0.0
  0
VERTEX
  5
67E
  8
GG1
 62
     1
 10
0.3225
 20
0.865
 30
0.0
  0
VERTEX
  5
67F
  8
GG1
 62
     1
 10
0.3375
 20
0.865
 30
0.0
  0
SEQEND
  5
7ED
  8
GG1
 62
     1
  0
POLYLINE
  5
27B
  8
GG1
 62
     1
 66
     1
 10
0.0
 20
0.0
 30
0.0
  0
VERTEX
  5
680
  8
GG1
 62
     1
 10
0.33
 20
0.8575
 30
0.0
  0
VERTEX
  5
681
  8
GG1
 62
     1
 10
0.33
 20
0.8725
 30
0.0
  0
SEQEND
  5
7EE
  8
GG1
 62
     1
  0
POLYLINE
  5
27F
  8
GG1
 62
     1
 66
     1
 10
0.0
 20
0.0
 30
0.0
  0
VERTEX
  5
682
  8
GG1
 62
     1
 10
0.3125
 20
0.335
 30
0.0
  0
VERTEX
  5
683
  8
GG1
 62
     1
 10
0.3275
 20
0.335
 30
0.0
  0
SEQEND
  5
7EF
  8
GG1
 62
     1
  0
POLYLINE
  5
283
  8
GG1
 62
     1
 66
     1
 10
0.0
 20
0.0
 30
0.0
  0
VERTEX
  5
684
  8
GG1
 62
     1
 10
0.32
 20
0.3275
 30
0.0
  0
VERTEX
  5
685
  8
GG1
 62
     1
 10
0.32
 20
0.3425
 30
0.0
  0
SEQEND
  5
7F0
  8
GG1
 62
     1
  0
POLYLINE
  5
287
  8
GG1
 62
     1
 66
     1
 10
0.0
 20
0.0
 30
0.0
  0
VERTEX
  5
686
  8
GG1
 62
     1
 10
0.2775
 20
0.345
 30
0.0
  0
VERTEX
  5
687
  8
GG1
 62
     1
 10
0.2925
 20
0.345
 30
0.0
  0
SEQEND
  5
7F1
  8
GG1
 62
     1
  0
POLYLINE
  5
28B
  8
GG1
 62
     1
 66
     1
 10
0.0
 20
0.0
 30
0.0
  0
VERTEX
  5
688
  8
GG1
 62
     1
 10
0.285
 20
0.3375
 30
0.0
  0
VERTEX
  5
689
  8
GG1
 62
     1
 10
0.285
 20
0.3525
 30
0.0
  0
SEQEND
  5
7F2
  8
GG1
 62
     1
  0
POLYLINE
  5
28F
  8
GG1
 62
     1
 66
     1
 10
0.0
 20
0.0
 30
0.0
  0
VERTEX
  5
68A
  8
GG1
 62
     1
 10
0.3025
 20
0.365
 30
0.0
  0
VERTEX
  5
68B
  8
GG1
 62
     1
 10
0.3175
 20
0.365
 30
0.0
  0
SEQEND
  5
7F3
  8
GG1
 62
     1
  0
POLYLINE
  5
293
  8
GG1
 62
     1
 66
     1
 10
0.0
 20
0.0
 30
0.0
  0
VERTEX
  5
68C
  8
GG1
 62
     1
 10
0.31
 20
0.3575
 30
0.0
  0
VERTEX
  5
68D
  8
GG1
 62
     1
 10
0.31
 20
0.3725
 30
0.0
  0
SEQEND
  5
7F4
  8
GG1
 62
     1
  0
POLYLINE
  5
297
  8
GG1
 62
     1
 66
     1
 10
0.0
 20
0.0
 30
0.0
  0
VERTEX
  5
68E
  8
GG1
 62
     1
 10
0.2775
 20
0.385
 30
0.0
  0
VERTEX
  5
68F
  8
GG1
 62
     1
 10
0.2925
 20
0.385
 30
0.0
  0
SEQEND
  5
7F5
  8
GG1
 62
     1
  0
POLYLINE
  5
29B
  8
GG1
 62
     1
 66
     1
 10
0.0
 20
0.0
 30
0.0
  0
VERTEX
  5
690
  8
GG1
 62
     1
 10
0.285
 20
0.3775
 30
0.0
  0
VERTEX
  5
691
  8
GG1
 62
     1
 10
0.285
 20
0.3925
 30
0.0
  0
SEQEND
  5
7F6
  8
GG1
 62
     1
  0
POLYLINE
  5
29F
  8
GG1
 62
     1
 66
     1
 10
0.0
 20
0.0
 30
0.0
  0
VERTEX
  5
692
  8
GG1
 62
     1
 10
0.3125
 20
0.395
 30
0.0
  0
VERTEX
  5
693
  8
GG1
 62
     1
 10
0.3275
 20
0.395
 30
0.0
  0
SEQEND
  5
7F7
  8
GG1
 62
     1
  0
POLYLINE
  5
2A3
  8
GG1
 62
     1
 66
     1
 10
0.0
 20
0.0
 30
0.0
  0
VERTEX
  5
694
  8
GG1
 62
     1
 10
0.32
 20
0.3875
 30
0.0
  0
VERTEX
  5
695
  8
GG1
 62
     1
 10
0.32
 20
0.4025
 30
0.0
  0
SEQEND
  5
7F8
  8
GG1
 62
     1
  0
POLYLINE
  5
2A7
  8
GG1
 62
     1
 66
     1
 10
0.0
 20
0.0
 30
0.0
  0
VERTEX
  5
696
  8
GG1
 62
     1
 10
0.9425
 20
0.77
 30
0.0
  0
VERTEX
  5
697
  8
GG1
 62
     1
 10
0.9575
 20
0.77
 30
0.0
  0
SEQEND
  5
7F9
  8
GG1
 62
     1
  0
POLYLINE
  5
2AB
  8
GG1
 62
     1
 66
     1
 10
0.0
 20
0.0
 30
0.0
  0
VERTEX
  5
698
  8
GG1
 62
     1
 10
0.95
 20
0.7625
 30
0.0
  0
VERTEX
  5
699
  8
GG1
 62
     1
 10
0.95
 20
0.7775
 30
0.0
  0
SEQEND
  5
7FA
  8
GG1
 62
     1
  0
POLYLINE
  5
2AF
  8
GG1
 62
     1
 66
     1
 10
0.0
 20
0.0
 30
0.0
  0
VERTEX
  5
69A
  8
GG1
 62
     1
 10
0.9075
 20
0.77
 30
0.0
  0
VERTEX
  5
69B
  8
GG1
 62
     1
 10
0.9225
 20
0.77
 30
0.0
  0
SEQEND
  5
7FB
  8
GG1
 62
     1
  0
POLYLINE
  5
2B3
  8
GG1
 62
     1
 66
     1
 10
0.0
 20
0.0
 30
0.0
  0
VERTEX
  5
69C
  8
GG1
 62
     1
 10
0.915
 20
0.7625
 30
0.0
  0
VERTEX
  5
69D
  8
GG1
 62
     1
 10
0.915
 20
0.7775
 30
0.0
  0
SEQEND
  5
7FC
  8
GG1
 62
     1
  0
POLYLINE
  5
2B7
  8
GG1
 62
     1
 66
     1
 10
0.0
 20
0.0
 30
0.0
  0
VERTEX
  5
69E
  8
GG1
 62
     1
 10
0.8775
 20
0.795
 30
0.0
  0
VERTEX
  5
69F
  8
GG1
 62
     1
 10
0.8925
 20
0.795
 30
0.0
  0
SEQEND
  5
7FD
  8
GG1
 62
     1
  0
POLYLINE
  5
2BB
  8
GG1
 62
     1
 66
     1
 10
0.0
 20
0.0
 30
0.0
  0
VERTEX
  5
6A0
  8
GG1
 62
     1
 10
0.885
 20
0.7875
 30
0.0
  0
VERTEX
  5
6A1
  8
GG1
 62
     1
 10
0.885
 20
0.8025
 30
0.0
  0
SEQEND
  5
7FE
  8
GG1
 62
     1
  0
POLYLINE
  5
2BF
  8
GG1
 62
     1
 66
     1
 10
0.0
 20
0.0
 30
0.0
  0
VERTEX
  5
6A2
  8
GG1
 62
     1
 10
0.8775
 20
0.83
 30
0.0
  0
VERTEX
  5
6A3
  8
GG1
 62
     1
 10
0.8925
 20
0.83
 30
0.0
  0
SEQEND
  5
7FF
  8
GG1
 62
     1
  0
POLYLINE
  5
2C3
  8
GG1
 62
     1
 66
     1
 10
0.0
 20
0.0
 30
0.0
  0
VERTEX
  5
6A4
  8
GG1
 62
     1
 10
0.885
 20
0.8225
 30
0.0
  0
VERTEX
  5
6A5
  8
GG1
 62
     1
 10
0.885
 20
0.8375
 30
0.0
  0
SEQEND
  5
800
  8
GG1
 62
     1
  0
POLYLINE
  5
2C7
  8
GG1
 62
     1
 66
     1
 10
0.0
 20
0.0
 30
0.0
  0
VERTEX
  5
6A6
  8
GG1
 62
     1
 10
0.8775
 20
0.865
 30
0.0
  0
VERTEX
  5
6A7
  8
GG1
 62
     1
 10
0.8925
 20
0.865
 30
0.0
  0
SEQEND
  5
801
  8
GG1
 62
     1
  0
POLYLINE
  5
2CB
  8
GG1
 62
     1
 66
     1
 10
0.0
 20
0.0
 30
0.0
  0
VERTEX
  5
6A8
  8
GG1
 62
     1
 10
0.885
 20
0.8575
 30
0.0
  0
VERTEX
  5
6A9
  8
GG1
 62
     1
 10
0.885
 20
0.8725
 30
0.0
  0
SEQEND
  5
802
  8
GG1
 62
     1
  0
POLYLINE
  5
2CF
  8
GG1
 62
     1
 66
     1
 10
0.0
 20
0.0
 30
0.0
  0
VERTEX
  5
6AA
  8
GG1
 62
     1
 10
0.8775
 20
0.9
 30
0.0
  0
VERTEX
  5
6AB
  8
GG1
 62
     1
 10
0.8925
 20
0.9
 30
0.0
  0
SEQEND
  5
803
  8
GG1
 62
     1
  0
POLYLINE
  5
2D3
  8
GG1
 62
     1
 66
     1
 10
0.0
 20
0.0
 30
0.0
  0
VERTEX
  5
6AC
  8
GG1
 62
     1
 10
0.885
 20
0.8925
 30
0.0
  0
VERTEX
  5
6AD
  8
GG1
 62
     1
 10
0.885
 20
0.9075
 30
0.0
  0
SEQEND
  5
804
  8
GG1
 62
     1
  0
POLYLINE
  5
2D7
  8
GG1
 62
     1
 66
     1
 10
0.0
 20
0.0
 30
0.0
  0
VERTEX
  5
6AE
  8
GG1
 62
     1
 10
0.8775
 20
0.935
 30
0.0
  0
VERTEX
  5
6AF
  8
GG1
 62
     1
 10
0.8925
 20
0.935
 30
0.0
  0
SEQEND
  5
805
  8
GG1
 62
     1
  0
POLYLINE
  5
2DB
  8
GG1
 62
     1
 66
     1
 10
0.0
 20
0.0
 30
0.0
  0
VERTEX
  5
6B0
  8
GG1
 62
     1
 10
0.885
 20
0.9275
 30
0.0
  0
VERTEX
  5
6B1
  8
GG1
 62
     1
 10
0.885
 20
0.9425
 30
0.0
  0
SEQEND
  5
806
  8
GG1
 62
     1
  0
POLYLINE
  5
2DF
  8
GG1
 62
     1
 66
     1
 10
0.0
 20
0.0
 30
0.0
  0
VERTEX
  5
6B2
  8
GG1
 62
     1
 10
0.8775
 20
0.97
 30
0.0
  0
VERTEX
  5
6B3
  8
GG1
 62
     1
 10
0.8925
 20
0.97
 30
0.0
  0
SEQEND
  5
807
  8
GG1
 62
     1
  0
POLYLINE
  5
2E3
  8
GG1
 62
     1
 66
     1
 10
0.0
 20
0.0
 30
0.0
  0
VERTEX
  5
6B4
  8
GG1
 62
     1
 10
0.885
 20
0.9625
 30
0.0
  0
VERTEX
  5
6B5
  8
GG1
 62
     1
 10
0.885
 20
0.9775
 30
0.0
  0
SEQEND
  5
808
  8
GG1
 62
     1
  0
POLYLINE
  5
2E7
  8
GG1
 62
     1
 66
     1
 10
0.0
 20
0.0
 30
0.0
  0
VERTEX
  5
6B6
  8
GG1
 62
     1
 10
0.1975
 20
0.59
 30
0.0
  0
VERTEX
  5
6B7
  8
GG1
 62
     1
 10
0.2125
 20
0.59
 30
0.0
  0
SEQEND
  5
809
  8
GG1
 62
     1
  0
POLYLINE
  5
2EB
  8
GG1
 62
     1
 66
     1
 10
0.0
 20
0.0
 30
0.0
  0
VERTEX
  5
6B8
  8
GG1
 62
     1
 10
0.205
 20
0.5825
 30
0.0
  0
VERTEX
  5
6B9
  8
GG1
 62
     1
 10
0.205
 20
0.5975
 30
0.0
  0
SEQEND
  5
80A
  8
GG1
 62
     1
  0
POLYLINE
  5
2EF
  8
GG1
 62
     1
 66
     1
 10
0.0
 20
0.0
 30
0.0
  0
VERTEX
  5
6BA
  8
GG1
 62
     1
 10
0.5675
 20
0.125
 30
0.0
  0
VERTEX
  5
6BB
  8
GG1
 62
     1
 10
0.5825
 20
0.125
 30
0.0
  0
SEQEND
  5
80B
  8
GG1
 62
     1
  0
POLYLINE
  5
2F3
  8
GG1
 62
     1
 66
     1
 10
0.0
 20
0.0
 30
0.0
  0
VERTEX
  5
6BC
  8
GG1
 62
     1
 10
0.575
 20
0.1175
 30
0.0
  0
VERTEX
  5
6BD
  8
GG1
 62
     1
 10
0.575
 20
0.1325
 30
0.0
  0
SEQEND
  5
80C
  8
GG1
 62
     1
  0
POLYLINE
  5
2F7
  8
GG1
 62
     1
 66
     1
 10
0.0
 20
0.0
 30
0.0
  0
VERTEX
  5
6BE
  8
GG1
 62
     1
 10
0.5475
 20
0.1
 30
0.0
  0
VERTEX
  5
6BF
  8
GG1
 62
     1
 10
0.5625
 20
0.1
 30
0.0
  0
SEQEND
  5
80D
  8
GG1
 62
     1
  0
POLYLINE
  5
2FB
  8
GG1
 62
     1
 66
     1
 10
0.0
 20
0.0
 30
0.0
  0
VERTEX
  5
6C0
  8
GG1
 62
     1
 10
0.555
 20
0.0925
 30
0.0
  0
VERTEX
  5
6C1
  8
GG1
 62
     1
 10
0.555
 20
0.1075
 30
0.0
  0
SEQEND
  5
80E
  8
GG1
 62
     1
  0
POLYLINE
  5
2FF
  8
GG1
 62
     1
 66
     1
 10
0.0
 20
0.0
 30
0.0
  0
VERTEX
  5
6C2
  8
GG1
 62
     1
 10
0.5075
 20
0.15
 30
0.0
  0
VERTEX
  5
6C3
  8
GG1
 62
     1
 10
0.5225
 20
0.15
 30
0.0
  0
SEQEND
  5
80F
  8
GG1
 62
     1
  0
POLYLINE
  5
303
  8
GG1
 62
     1
 66
     1
 10
0.0
 20
0.0
 30
0.0
  0
VERTEX
  5
6C4
  8
GG1
 62
     1
 10
0.515
 20
0.1425
 30
0.0
  0
VERTEX
  5
6C5
  8
GG1
 62
     1
 10
0.515
 20
0.1575
 30
0.0
  0
SEQEND
  5
810
  8
GG1
 62
     1
  0
POLYLINE
  5
307
  8
GG1
 62
     1
 66
     1
 10
0.0
 20
0.0
 30
0.0
  0
VERTEX
  5
6C6
  8
GG1
 62
     1
 10
0.4875
 20
0.125
 30
0.0
  0
VERTEX
  5
6C7
  8
GG1
 62
     1
 10
0.5025
 20
0.125
 30
0.0
  0
SEQEND
  5
811
  8
GG1
 62
     1
  0
POLYLINE
  5
30B
  8
GG1
 62
     1
 66
     1
 10
0.0
 20
0.0
 30
0.0
  0
VERTEX
  5
6C8
  8
GG1
 62
     1
 10
0.495
 20
0.1175
 30
0.0
  0
VERTEX
  5
6C9
  8
GG1
 62
     1
 10
0.495
 20
0.1325
 30
0.0
  0
SEQEND
  5
812
  8
GG1
 62
     1
  0
POLYLINE
  5
30F
  8
GG1
 62
     1
 66
     1
 10
0.0
 20
0.0
 30
0.0
  0
VERTEX
  5
6CA
  8
GG1
 62
     1
 10
0.5475
 20
0.15
 30
0.0
  0
VERTEX
  5
6CB
  8
GG1
 62
     1
 10
0.5625
 20
0.15
 30
0.0
  0
SEQEND
  5
813
  8
GG1
 62
     1
  0
POLYLINE
  5
313
  8
GG1
 62
     1
 66
     1
 10
0.0
 20
0.0
 30
0.0
  0
VERTEX
  5
6CC
  8
GG1
 62
     1
 10
0.555
 20
0.1425
 30
0.0
  0
VERTEX
  5
6CD
  8
GG1
 62
     1
 10
0.555
 20
0.1575
 30
0.0
  0
SEQEND
  5
814
  8
GG1
 62
     1
  0
POLYLINE
  5
317
  8
GG1
 62
     1
 66
     1
 10
0.0
 20
0.0
 30
0.0
  0
VERTEX
  5
6CE
  8
GG1
 62
     1
 10
0.5675
 20
0.175
 30
0.0
  0
VERTEX
  5
6CF
  8
GG1
 62
     1
 10
0.5825
 20
0.175
 30
0.0
  0
SEQEND
  5
815
  8
GG1
 62
     1
  0
POLYLINE
  5
31B
  8
GG1
 62
     1
 66
     1
 10
0.0
 20
0.0
 30
0.0
  0
VERTEX
  5
6D0
  8
GG1
 62
     1
 10
0.575
 20
0.1675
 30
0.0
  0
VERTEX
  5
6D1
  8
GG1
 62
     1
 10
0.575
 20
0.1825
 30
0.0
  0
SEQEND
  5
816
  8
GG1
 62
     1
  0
POLYLINE
  5
31F
  8
GG1
 62
     1
 66
     1
 10
0.0
 20
0.0
 30
0.0
  0
VERTEX
  5
6D2
  8
GG1
 62
     1
 10
0.5275
 20
0.175
 30
0.0
  0
VERTEX
  5
6D3
  8
GG1
 62
     1
 10
0.5425
 20
0.175
 30
0.0
  0
SEQEND
  5
817
  8
GG1
 62
     1
  0
POLYLINE
  5
323
  8
GG1
 62
     1
 66
     1
 10
0.0
 20
0.0
 30
0.0
  0
VERTEX
  5
6D4
  8
GG1
 62
     1
 10
0.535
 20
0.1675
 30
0.0
  0
VERTEX
  5
6D5
  8
GG1
 62
     1
 10
0.535
 20
0.1825
 30
0.0
  0
SEQEND
  5
818
  8
GG1
 62
     1
  0
POLYLINE
  5
327
  8
GG1
 62
     1
 66
     1
 10
0.0
 20
0.0
 30
0.0
  0
VERTEX
  5
6D6
  8
GG1
 62
     1
 10
0.4875
 20
0.175
 30
0.0
  0
VERTEX
  5
6D7
  8
GG1
 62
     1
 10
0.5025
 20
0.175
 30
0.0
  0
SEQEND
  5
819
  8
GG1
 62
     1
  0
POLYLINE
  5
32B
  8
GG1
 62
     1
 66
     1
 10
0.0
 20
0.0
 30
0.0
  0
VERTEX
  5
6D8
  8
GG1
 62
     1
 10
0.495
 20
0.1675
 30
0.0
  0
VERTEX
  5
6D9
  8
GG1
 62
     1
 10
0.495
 20
0.1825
 30
0.0
  0
SEQEND
  5
81A
  8
GG1
 62
     1
  0
POLYLINE
  5
32F
  8
GG1
 62
     1
 66
     1
 10
0.0
 20
0.0
 30
0.0
  0
VERTEX
  5
6DA
  8
GG1
 62
     1
 10
0.5275
 20
0.125
 30
0.0
  0
VERTEX
  5
6DB
  8
GG1
 62
     1
 10
0.5425
 20
0.125
 30
0.0
  0
SEQEND
  5
81B
  8
GG1
 62
     1
  0
POLYLINE
  5
333
  8
GG1
 62
     1
 66
     1
 10
0.0
 20
0.0
 30
0.0
  0
VERTEX
  5
6DC
  8
GG1
 62
     1
 10
0.535
 20
0.1175
 30
0.0
  0
VERTEX
  5
6DD
  8
GG1
 62
     1
 10
0.535
 20
0.1325
 30
0.0
  0
SEQEND
  5
81C
  8
GG1
 62
     1
  0
POLYLINE
  5
337
  8
GG1
 62
     1
 66
     1
 10
0.0
 20
0.0
 30
0.0
  0
VERTEX
  5
6DE
  8
GG1
 62
     1
 10
0.4849
 20
0.4477
 30
0.0
  0
VERTEX
  5
6DF
  8
GG1
 62
     1
 10
0.4999
 20
0.4477
 30
0.0
  0
SEQEND
  5
81D
  8
GG1
 62
     1
  0
POLYLINE
  5
33B
  8
GG1
 62
     1
 66
     1
 10
0.0
 20
0.0
 30
0.0
  0
VERTEX
  5
6E0
  8
GG1
 62
     1
 10
0.4924
 20
0.4402
 30
0.0
  0
VERTEX
  5
6E1
  8
GG1
 62
     1
 10
0.4924
 20
0.4552
 30
0.0
  0
SEQEND
  5
81E
  8
GG1
 62
     1
  0
POLYLINE
  5
33F
  8
GG1
 62
     1
 66
     1
 10
0.0
 20
0.0
 30
0.0
  0
VERTEX
  5
6E2
  8
GG1
 62
     1
 10
0.4298
 20
0.4477
 30
0.0
  0
VERTEX
  5
6E3
  8
GG1
 62
     1
 10
0.4448
 20
0.4477
 30
0.0
  0
SEQEND
  5
81F
  8
GG1
 62
     1
  0
POLYLINE
  5
343
  8
GG1
 62
     1
 66
     1
 10
0.0
 20
0.0
 30
0.0
  0
VERTEX
  5
6E4
  8
GG1
 62
     1
 10
0.4373
 20
0.4402
 30
0.0
  0
VERTEX
  5
6E5
  8
GG1
 62
     1
 10
0.4373
 20
0.4552
 30
0.0
  0
SEQEND
  5
820
  8
GG1
 62
     1
  0
POLYLINE
  5
347
  8
GG1
 62
     1
 66
     1
 10
0.0
 20
0.0
 30
0.0
  0
VERTEX
  5
6E6
  8
GG1
 62
     1
 10
0.5401
 20
0.4477
 30
0.0
  0
VERTEX
  5
6E7
  8
GG1
 62
     1
 10
0.5551
 20
0.4477
 30
0.0
  0
SEQEND
  5
821
  8
GG1
 62
     1
  0
POLYLINE
  5
34B
  8
GG1
 62
     1
 66
     1
 10
0.0
 20
0.0
 30
0.0
  0
VERTEX
  5
6E8
  8
GG1
 62
     1
 10
0.5476
 20
0.4402
 30
0.0
  0
VERTEX
  5
6E9
  8
GG1
 62
     1
 10
0.5476
 20
0.4552
 30
0.0
  0
SEQEND
  5
822
  8
GG1
 62
     1
  0
POLYLINE
  5
34F
  8
GG1
 62
     1
 66
     1
 10
0.0
 20
0.0
 30
0.0
  0
VERTEX
  5
6EA
  8
GG1
 62
     1
 10
0.5952
 20
0.4477
 30
0.0
  0
VERTEX
  5
6EB
  8
GG1
 62
     1
 10
0.6102
 20
0.4477
 30
0.0
  0
SEQEND
  5
823
  8
GG1
 62
     1
  0
POLYLINE
  5
353
  8
GG1
 62
     1
 66
     1
 10
0.0
 20
0.0
 30
0.0
  0
VERTEX
  5
6EC
  8
GG1
 62
     1
 10
0.6027
 20
0.4402
 30
0.0
  0
VERTEX
  5
6ED
  8
GG1
 62
     1
 10
0.6027
 20
0.4552
 30
0.0
  0
SEQEND
  5
824
  8
GG1
 62
     1
  0
POLYLINE
  5
357
  8
GG1
 62
     1
 66
     1
 10
0.0
 20
0.0
 30
0.0
  0
VERTEX
  5
6EE
  8
GG1
 62
     1
 10
0.4298
 20
0.3926
 30
0.0
  0
VERTEX
  5
6EF
  8
GG1
 62
     1
 10
0.4448
 20
0.3926
 30
0.0
  0
SEQEND
  5
825
  8
GG1
 62
     1
  0
POLYLINE
  5
35B
  8
GG1
 62
     1
 66
     1
 10
0.0
 20
0.0
 30
0.0
  0
VERTEX
  5
6F0
  8
GG1
 62
     1
 10
0.4373
 20
0.3851
 30
0.0
  0
VERTEX
  5
6F1
  8
GG1
 62
     1
 10
0.4373
 20
0.4001
 30
0.0
  0
SEQEND
  5
826
  8
GG1
 62
     1
  0
POLYLINE
  5
35F
  8
GG1
 62
     1
 66
     1
 10
0.0
 20
0.0
 30
0.0
  0
VERTEX
  5
6F2
  8
GG1
 62
     1
 10
0.4849
 20
0.3926
 30
0.0
  0
VERTEX
  5
6F3
  8
GG1
 62
     1
 10
0.4999
 20
0.3926
 30
0.0
  0
SEQEND
  5
827
  8
GG1
 62
     1
  0
POLYLINE
  5
363
  8
GG1
 62
     1
 66
     1
 10
0.0
 20
0.0
 30
0.0
  0
VERTEX
  5
6F4
  8
GG1
 62
     1
 10
0.4924
 20
0.3851
 30
0.0
  0
VERTEX
  5
6F5
  8
GG1
 62
     1
 10
0.4924
 20
0.4001
 30
0.0
  0
SEQEND
  5
828
  8
GG1
 62
     1
  0
POLYLINE
  5
367
  8
GG1
 62
     1
 66
     1
 10
0.0
 20
0.0
 30
0.0
  0
VERTEX
  5
6F6
  8
GG1
 62
     1
 10
0.5401
 20
0.3926
 30
0.0
  0
VERTEX
  5
6F7
  8
GG1
 62
     1
 10
0.5551
 20
0.3926
 30
0.0
  0
SEQEND
  5
829
  8
GG1
 62
     1
  0
POLYLINE
  5
36B
  8
GG1
 62
     1
 66
     1
 10
0.0
 20
0.0
 30
0.0
  0
VERTEX
  5
6F8
  8
GG1
 62
     1
 10
0.5476
 20
0.3851
 30
0.0
  0
VERTEX
  5
6F9
  8
GG1
 62
     1
 10
0.5476
 20
0.4001
 30
0.0
  0
SEQEND
  5
82A
  8
GG1
 62
     1
  0
POLYLINE
  5
36F
  8
GG1
 62
     1
 66
     1
 10
0.0
 20
0.0
 30
0.0
  0
VERTEX
  5
6FA
  8
GG1
 62
     1
 10
0.5952
 20
0.3926
 30
0.0
  0
VERTEX
  5
6FB
  8
GG1
 62
     1
 10
0.6102
 20
0.3926
 30
0.0
  0
SEQEND
  5
82B
  8
GG1
 62
     1
  0
POLYLINE
  5
373
  8
GG1
 62
     1
 66
     1
 10
0.0
 20
0.0
 30
0.0
  0
VERTEX
  5
6FC
  8
GG1
 62
     1
 10
0.6027
 20
0.3851
 30
0.0
  0
VERTEX
  5
6FD
  8
GG1
 62
     1
 10
0.6027
 20
0.4001
 30
0.0
  0
SEQEND
  5
82C
  8
GG1
 62
     1
  0
POLYLINE
  5
377
  8
GG1
 62
     1
 66
     1
 10
0.0
 20
0.0
 30
0.0
  0
VERTEX
  5
6FE
  8
GG1
 62
     1
 10
0.4298
 20
0.3374
 30
0.0
  0
VERTEX
  5
6FF
  8
GG1
 62
     1
 10
0.4448
 20
0.3374
 30
0.0
  0
SEQEND
  5
82D
  8
GG1
 62
     1
  0
POLYLINE
  5
37B
  8
GG1
 62
     1
 66
     1
 10
0.0
 20
0.0
 30
0.0
  0
VERTEX
  5
700
  8
GG1
 62
     1
 10
0.4373
 20
0.3299
 30
0.0
  0
VERTEX
  5
701
  8
GG1
 62
     1
 10
0.4373
 20
0.3449
 30
0.0
  0
SEQEND
  5
82E
  8
GG1
 62
     1
  0
POLYLINE
  5
37F
  8
GG1
 62
     1
 66
     1
 10
0.0
 20
0.0
 30
0.0
  0
VERTEX
  5
702
  8
GG1
 62
     1
 10
0.4849
 20
0.3374
 30
0.0
  0
VERTEX
  5
703
  8
GG1
 62
     1
 10
0.4999
 20
0.3374
 30
0.0
  0
SEQEND
  5
82F
  8
GG1
 62
     1
  0
POLYLINE
  5
383
  8
GG1
 62
     1
 66
     1
 10
0.0
 20
0.0
 30
0.0
  0
VERTEX
  5
704
  8
GG1
 62
     1
 10
0.4924
 20
0.3299
 30
0.0
  0
VERTEX
  5
705
  8
GG1
 62
     1
 10
0.4924
 20
0.3449
 30
0.0
  0
SEQEND
  5
830
  8
GG1
 62
     1
  0
POLYLINE
  5
387
  8
GG1
 62
     1
 66
     1
 10
0.0
 20
0.0
 30
0.0
  0
VERTEX
  5
706
  8
GG1
 62
     1
 10
0.5401
 20
0.3374
 30
0.0
  0
VERTEX
  5
707
  8
GG1
 62
     1
 10
0.5551
 20
0.3374
 30
0.0
  0
SEQEND
  5
831
  8
GG1
 62
     1
  0
POLYLINE
  5
38B
  8
GG1
 62
     1
 66
     1
 10
0.0
 20
0.0
 30
0.0
  0
VERTEX
  5
708
  8
GG1
 62
     1
 10
0.5476
 20
0.3299
 30
0.0
  0
VERTEX
  5
709
  8
GG1
 62
     1
 10
0.5476
 20
0.3449
 30
0.0
  0
SEQEND
  5
832
  8
GG1
 62
     1
  0
POLYLINE
  5
38F
  8
GG1
 62
     1
 66
     1
 10
0.0
 20
0.0
 30
0.0
  0
VERTEX
  5
70A
  8
GG1
 62
     1
 10
0.5952
 20
0.3374
 30
0.0
  0
VERTEX
  5
70B
  8
GG1
 62
     1
 10
0.6102
 20
0.3374
 30
0.0
  0
SEQEND
  5
833
  8
GG1
 62
     1
  0
POLYLINE
  5
393
  8
GG1
 62
     1
 66
     1
 10
0.0
 20
0.0
 30
0.0
  0
VERTEX
  5
70C
  8
GG1
 62
     1
 10
0.6027
 20
0.3299
 30
0.0
  0
VERTEX
  5
70D
  8
GG1
 62
     1
 10
0.6027
 20
0.3449
 30
0.0
  0
SEQEND
  5
834
  8
GG1
 62
     1
  0
POLYLINE
  5
397
  8
GG1
 62
     1
 66
     1
 10
0.0
 20
0.0
 30
0.0
  0
VERTEX
  5
70E
  8
GG1
 62
     1
 10
0.4298
 20
0.2823
 30
0.0
  0
VERTEX
  5
70F
  8
GG1
 62
     1
 10
0.4448
 20
0.2823
 30
0.0
  0
SEQEND
  5
835
  8
GG1
 62
     1
  0
POLYLINE
  5
39B
  8
GG1
 62
     1
 66
     1
 10
0.0
 20
0.0
 30
0.0
  0
VERTEX
  5
710
  8
GG1
 62
     1
 10
0.4373
 20
0.2748
 30
0.0
  0
VERTEX
  5
711
  8
GG1
 62
     1
 10
0.4373
 20
0.2898
 30
0.0
  0
SEQEND
  5
836
  8
GG1
 62
     1
  0
POLYLINE
  5
39F
  8
GG1
 62
     1
 66
     1
 10
0.0
 20
0.0
 30
0.0
  0
VERTEX
  5
712
  8
GG1
 62
     1
 10
0.4849
 20
0.2823
 30
0.0
  0
VERTEX
  5
713
  8
GG1
 62
     1
 10
0.4999
 20
0.2823
 30
0.0
  0
SEQEND
  5
837
  8
GG1
 62
     1
  0
POLYLINE
  5
3A3
  8
GG1
 62
     1
 66
     1
 10
0.0
 20
0.0
 30
0.0
  0
VERTEX
  5
714
  8
GG1
 62
     1
 10
0.4924
 20
0.2748
 30
0.0
  0
VERTEX
  5
715
  8
GG1
 62
     1
 10
0.4924
 20
0.2898
 30
0.0
  0
SEQEND
  5
838
  8
GG1
 62
     1
  0
POLYLINE
  5
3A7
  8
GG1
 62
     1
 66
     1
 10
0.0
 20
0.0
 30
0.0
  0
VERTEX
  5
716
  8
GG1
 62
     1
 10
0.5401
 20
0.2823
 30
0.0
  0
VERTEX
  5
717
  8
GG1
 62
     1
 10
0.5551
 20
0.2823
 30
0.0
  0
SEQEND
  5
839
  8
GG1
 62
     1
  0
POLYLINE
  5
3AB
  8
GG1
 62
     1
 66
     1
 10
0.0
 20
0.0
 30
0.0
  0
VERTEX
  5
718
  8
GG1
 62
     1
 10
0.5476
 20
0.2748
 30
0.0
  0
VERTEX
  5
719
  8
GG1
 62
     1
 10
0.5476
 20
0.2898
 30
0.0
  0
SEQEND
  5
83A
  8
GG1
 62
     1
  0
POLYLINE
  5
3AF
  8
GG1
 62
     1
 66
     1
 10
0.0
 20
0.0
 30
0.0
  0
VERTEX
  5
71A
  8
GG1
 62
     1
 10
0.5952
 20
0.2823
 30
0.0
  0
VERTEX
  5
71B
  8
GG1
 62
     1
 10
0.6102
 20
0.2823
 30
0.0
  0
SEQEND
  5
83B
  8
GG1
 62
     1
  0
POLYLINE
  5
3B3
  8
GG1
 62
     1
 66
     1
 10
0.0
 20
0.0
 30
0.0
  0
VERTEX
  5
71C
  8
GG1
 62
     1
 10
0.6027
 20
0.2748
 30
0.0
  0
VERTEX
  5
71D
  8
GG1
 62
     1
 10
0.6027
 20
0.2898
 30
0.0
  0
SEQEND
  5
83C
  8
GG1
 62
     1
  0
POLYLINE
  5
3B7
  8
GG1
 62
     1
 66
     1
 10
0.0
 20
0.0
 30
0.0
  0
VERTEX
  5
71E
  8
GG1
 62
     1
 10
0.19
 20
0.7125
 30
0.0
  0
VERTEX
  5
71F
  8
GG1
 62
     1
 10
0.205
 20
0.7125
 30
0.0
  0
SEQEND
  5
83D
  8
GG1
 62
     1
  0
POLYLINE
  5
3BB
  8
GG1
 62
     1
 66
     1
 10
0.0
 20
0.0
 30
0.0
  0
VERTEX
  5
720
  8
GG1
 62
     1
 10
0.1975
 20
0.705
 30
0.0
  0
VERTEX
  5
721
  8
GG1
 62
     1
 10
0.1975
 20
0.72
 30
0.0
  0
SEQEND
  5
83E
  8
GG1
 62
     1
  0
POLYLINE
  5
3BF
  8
GG1
 62
     1
 66
     1
 10
0.0
 20
0.0
 30
0.0
  0
VERTEX
  5
722
  8
GG1
 62
     1
 10
0.2925
 20
0.78
 30
0.0
  0
VERTEX
  5
723
  8
GG1
 62
     1
 10
0.3075
 20
0.78
 30
0.0
  0
SEQEND
  5
83F
  8
GG1
 62
     1
  0
POLYLINE
  5
3C3
  8
GG1
 62
     1
 66
     1
 10
0.0
 20
0.0
 30
0.0
  0
VERTEX
  5
724
  8
GG1
 62
     1
 10
0.3
 20
0.7725
 30
0.0
  0
VERTEX
  5
725
  8
GG1
 62
     1
 10
0.3
 20
0.7875
 30
0.0
  0
SEQEND
  5
840
  8
GG1
 62
     1
  0
POLYLINE
  5
3C7
  8
GG1
 62
     1
 66
     1
 10
0.0
 20
0.0
 30
0.0
  0
VERTEX
  5
726
  8
GG1
 62
     1
 10
0.7225
 20
0.05
 30
0.0
  0
VERTEX
  5
727
  8
GG1
 62
     1
 10
0.7375
 20
0.05
 30
0.0
  0
SEQEND
  5
841
  8
GG1
 62
     1
  0
POLYLINE
  5
3CB
  8
GG1
 62
     1
 66
     1
 10
0.0
 20
0.0
 30
0.0
  0
VERTEX
  5
728
  8
GG1
 62
     1
 10
0.73
 20
0.0425
 30
0.0
  0
VERTEX
  5
729
  8
GG1
 62
     1
 10
0.73
 20
0.0575
 30
0.0
  0
SEQEND
  5
842
  8
GG1
 62
     1
  0
POLYLINE
  5
3CF
  8
GG1
 62
     1
 66
     1
 10
0.0
 20
0.0
 30
0.0
  0
VERTEX
  5
72A
  8
GG1
 62
     1
 10
0.2575
 20
0.07
 30
0.0
  0
VERTEX
  5
72B
  8
GG1
 62
     1
 10
0.2725
 20
0.07
 30
0.0
  0
SEQEND
  5
843
  8
GG1
 62
     1
  0
POLYLINE
  5
3D3
  8
GG1
 62
     1
 66
     1
 10
0.0
 20
0.0
 30
0.0
  0
VERTEX
  5
72C
  8
GG1
 62
     1
 10
0.265
 20
0.0625
 30
0.0
  0
VERTEX
  5
72D
  8
GG1
 62
     1
 10
0.265
 20
0.0775
 30
0.0
  0
SEQEND
  5
844
  8
GG1
 62
     1
  0
POLYLINE
  5
3D7
  8
GG1
 62
     1
 66
     1
 10
0.0
 20
0.0
 30
0.0
  0
VERTEX
  5
72E
  8
GG1
 62
     1
 10
0.2405
 20
0.43
 30
0.0
  0
VERTEX
  5
72F
  8
GG1
 62
     1
 10
0.2555
 20
0.43
 30
0.0
  0
SEQEND
  5
845
  8
GG1
 62
     1
  0
POLYLINE
  5
3DB
  8
GG1
 62
     1
 66
     1
 10
0.0
 20
0.0
 30
0.0
  0
VERTEX
  5
730
  8
GG1
 62
     1
 10
0.248
 20
0.4225
 30
0.0
  0
VERTEX
  5
731
  8
GG1
 62
     1
 10
0.248
 20
0.4375
 30
0.0
  0
SEQEND
  5
846
  8
GG1
 62
     1
  0
POLYLINE
  5
3DF
  8
GG1
 62
     1
 66
     1
 10
0.0
 20
0.0
 30
0.0
  0
VERTEX
  5
732
  8
GG1
 62
     1
 10
0.3375
 20
0.705
 30
0.0
  0
VERTEX
  5
733
  8
GG1
 62
     1
 10
0.3525
 20
0.705
 30
0.0
  0
SEQEND
  5
847
  8
GG1
 62
     1
  0
POLYLINE
  5
3E3
  8
GG1
 62
     1
 66
     1
 10
0.0
 20
0.0
 30
0.0
  0
VERTEX
  5
734
  8
GG1
 62
     1
 10
0.345
 20
0.6975
 30
0.0
  0
VERTEX
  5
735
  8
GG1
 62
     1
 10
0.345
 20
0.7125
 30
0.0
  0
SEQEND
  5
848
  8
GG1
 62
     1
  0
POLYLINE
  5
3E7
  8
GG1
 62
     1
 66
     1
 10
0.0
 20
0.0
 30
0.0
  0
VERTEX
  5
736
  8
GG1
 62
     1
 10
0.3375
 20
0.11
 30
0.0
  0
VERTEX
  5
737
  8
GG1
 62
     1
 10
0.3525
 20
0.11
 30
0.0
  0
SEQEND
  5
849
  8
GG1
 62
     1
  0
POLYLINE
  5
3EB
  8
GG1
 62
     1
 66
     1
 10
0.0
 20
0.0
 30
0.0
  0
VERTEX
  5
738
  8
GG1
 62
     1
 10
0.345
 20
0.1025
 30
0.0
  0
VERTEX
  5
739
  8
GG1
 62
     1
 10
0.345
 20
0.1175
 30
0.0
  0
SEQEND
  5
84A
  8
GG1
 62
     1
  0
POLYLINE
  5
3EF
  8
GG1
 62
     1
 66
     1
 10
0.0
 20
0.0
 30
0.0
  0
VERTEX
  5
73A
  8
GG1
 62
     1
 10
0.5075
 20
0.1
 30
0.0
  0
VERTEX
  5
73B
  8
GG1
 62
     1
 10
0.5225
 20
0.1
 30
0.0
  0
SEQEND
  5
84B
  8
GG1
 62
     1
  0
POLYLINE
  5
3F3
  8
GG1
 62
     1
 66
     1
 10
0.0
 20
0.0
 30
0.0
  0
VERTEX
  5
73C
  8
GG1
 62
     1
 10
0.515
 20
0.0925
 30
0.0
  0
VERTEX
  5
73D
  8
GG1
 62
     1
 10
0.515
 20
0.1075
 30
0.0
  0
SEQEND
  5
84C
  8
GG1
 62
     1
  0
POLYLINE
  5
3F7
  8
GG1
 62
     1
 66
     1
 10
0.0
 20
0.0
 30
0.0
  0
VERTEX
  5
73E
  8
GG1
 62
     1
 10
0.3275
 20
0.175
 30
0.0
  0
VERTEX
  5
73F
  8
GG1
 62
     1
 10
0.3425
 20
0.175
 30
0.0
  0
SEQEND
  5
84D
  8
GG1
 62
     1
  0
POLYLINE
  5
3FB
  8
GG1
 62
     1
 66
     1
 10
0.0
 20
0.0
 30
0.0
  0
VERTEX
  5
740
  8
GG1
 62
     1
 10
0.335
 20
0.1675
 30
0.0
  0
VERTEX
  5
741
  8
GG1
 62
     1
 10
0.335
 20
0.1825
 30
0.0
  0
SEQEND
  5
84E
  8
GG1
 62
     1
  0
POLYLINE
  5
3FF
  8
GG1
 62
     1
 66
     1
 10
0.0
 20
0.0
 30
0.0
  0
VERTEX
  5
742
  8
GG1
 62
     1
 10
0.3525
 20
0.15
 30
0.0
  0
VERTEX
  5
743
  8
GG1
 62
     1
 10
0.3675
 20
0.15
 30
0.0
  0
SEQEND
  5
84F
  8
GG1
 62
     1
  0
POLYLINE
  5
403
  8
GG1
 62
     1
 66
     1
 10
0.0
 20
0.0
 30
0.0
  0
VERTEX
  5
744
  8
GG1
 62
     1
 10
0.36
 20
0.1425
 30
0.0
  0
VERTEX
  5
745
  8
GG1
 62
     1
 10
0.36
 20
0.1575
 30
0.0
  0
SEQEND
  5
850
  8
GG1
 62
     1
  0
POLYLINE
  5
407
  8
GG1
 62
     1
 66
     1
 10
0.0
 20
0.0
 30
0.0
  0
VERTEX
  5
746
  8
GG1
 62
     1
 10
0.3825
 20
0.125
 30
0.0
  0
VERTEX
  5
747
  8
GG1
 62
     1
 10
0.3975
 20
0.125
 30
0.0
  0
SEQEND
  5
851
  8
GG1
 62
     1
  0
POLYLINE
  5
40B
  8
GG1
 62
     1
 66
     1
 10
0.0
 20
0.0
 30
0.0
  0
VERTEX
  5
748
  8
GG1
 62
     1
 10
0.39
 20
0.1175
 30
0.0
  0
VERTEX
  5
749
  8
GG1
 62
     1
 10
0.39
 20
0.1325
 30
0.0
  0
SEQEND
  5
852
  8
GG1
 62
     1
  0
POLYLINE
  5
40F
  8
GG1
 62
     1
 66
     1
 10
0.0
 20
0.0
 30
0.0
  0
VERTEX
  5
74A
  8
GG1
 62
     1
 10
0.4125
 20
0.105
 30
0.0
  0
VERTEX
  5
74B
  8
GG1
 62
     1
 10
0.4275
 20
0.105
 30
0.0
  0
SEQEND
  5
853
  8
GG1
 62
     1
  0
POLYLINE
  5
413
  8
GG1
 62
     1
 66
     1
 10
0.0
 20
0.0
 30
0.0
  0
VERTEX
  5
74C
  8
GG1
 62
     1
 10
0.42
 20
0.0975
 30
0.0
  0
VERTEX
  5
74D
  8
GG1
 62
     1
 10
0.42
 20
0.1125
 30
0.0
  0
SEQEND
  5
854
  8
GG1
 62
     1
  0
POLYLINE
  5
417
  8
GG1
 62
     1
 66
     1
 10
0.0
 20
0.0
 30
0.0
  0
VERTEX
  5
74E
  8
GG1
 62
     1
 10
0.4125
 20
0.155
 30
0.0
  0
VERTEX
  5
74F
  8
GG1
 62
     1
 10
0.4275
 20
0.155
 30
0.0
  0
SEQEND
  5
855
  8
GG1
 62
     1
  0
POLYLINE
  5
41B
  8
GG1
 62
     1
 66
     1
 10
0.0
 20
0.0
 30
0.0
  0
VERTEX
  5
750
  8
GG1
 62
     1
 10
0.42
 20
0.1475
 30
0.0
  0
VERTEX
  5
751
  8
GG1
 62
     1
 10
0.42
 20
0.1625
 30
0.0
  0
SEQEND
  5
856
  8
GG1
 62
     1
  0
POLYLINE
  5
41F
  8
GG1
 62
     1
 66
     1
 10
0.0
 20
0.0
 30
0.0
  0
VERTEX
  5
752
  8
GG1
 62
     1
 10
0.3475
 20
0.615
 30
0.0
  0
VERTEX
  5
753
  8
GG1
 62
     1
 10
0.3625
 20
0.615
 30
0.0
  0
SEQEND
  5
857
  8
GG1
 62
     1
  0
POLYLINE
  5
423
  8
GG1
 62
     1
 66
     1
 10
0.0
 20
0.0
 30
0.0
  0
VERTEX
  5
754
  8
GG1
 62
     1
 10
0.355
 20
0.6075
 30
0.0
  0
VERTEX
  5
755
  8
GG1
 62
     1
 10
0.355
 20
0.6225
 30
0.0
  0
SEQEND
  5
858
  8
GG1
 62
     1
  0
POLYLINE
  5
427
  8
GG1
 62
     1
 66
     1
 10
0.0
 20
0.0
 30
0.0
  0
VERTEX
  5
756
  8
GG1
 62
     1
 10
0.3775
 20
0.595
 30
0.0
  0
VERTEX
  5
757
  8
GG1
 62
     1
 10
0.3925
 20
0.595
 30
0.0
  0
SEQEND
  5
859
  8
GG1
 62
     1
  0
POLYLINE
  5
42B
  8
GG1
 62
     1
 66
     1
 10
0.0
 20
0.0
 30
0.0
  0
VERTEX
  5
758
  8
GG1
 62
     1
 10
0.385
 20
0.5875
 30
0.0
  0
VERTEX
  5
759
  8
GG1
 62
     1
 10
0.385
 20
0.6025
 30
0.0
  0
SEQEND
  5
85A
  8
GG1
 62
     1
  0
POLYLINE
  5
42F
  8
GG1
 62
     1
 66
     1
 10
0.0
 20
0.0
 30
0.0
  0
VERTEX
  5
75A
  8
GG1
 62
     1
 10
0.4075
 20
0.625
 30
0.0
  0
VERTEX
  5
75B
  8
GG1
 62
     1
 10
0.4225
 20
0.625
 30
0.0
  0
SEQEND
  5
85B
  8
GG1
 62
     1
  0
POLYLINE
  5
433
  8
GG1
 62
     1
 66
     1
 10
0.0
 20
0.0
 30
0.0
  0
VERTEX
  5
75C
  8
GG1
 62
     1
 10
0.415
 20
0.6175
 30
0.0
  0
VERTEX
  5
75D
  8
GG1
 62
     1
 10
0.415
 20
0.6325
 30
0.0
  0
SEQEND
  5
85C
  8
GG1
 62
     1
  0
POLYLINE
  5
437
  8
GG1
 62
     1
 66
     1
 10
0.0
 20
0.0
 30
0.0
  0
VERTEX
  5
75E
  8
GG1
 62
     1
 10
0.4325
 20
0.58
 30
0.0
  0
VERTEX
  5
75F
  8
GG1
 62
     1
 10
0.4475
 20
0.58
 30
0.0
  0
SEQEND
  5
85D
  8
GG1
 62
     1
  0
POLYLINE
  5
43B
  8
GG1
 62
     1
 66
     1
 10
0.0
 20
0.0
 30
0.0
  0
VERTEX
  5
760
  8
GG1
 62
     1
 10
0.44
 20
0.5725
 30
0.0
  0
VERTEX
  5
761
  8
GG1
 62
     1
 10
0.44
 20
0.5875
 30
0.0
  0
SEQEND
  5
85E
  8
GG1
 62
     1
  0
POLYLINE
  5
43F
  8
GG1
 62
     1
 66
     1
 10
0.0
 20
0.0
 30
0.0
  0
VERTEX
  5
762
  8
GG1
 62
     1
 10
0.4475
 20
0.615
 30
0.0
  0
VERTEX
  5
763
  8
GG1
 62
     1
 10
0.4625
 20
0.615
 30
0.0
  0
SEQEND
  5
85F
  8
GG1
 62
     1
  0
POLYLINE
  5
443
  8
GG1
 62
     1
 66
     1
 10
0.0
 20
0.0
 30
0.0
  0
VERTEX
  5
764
  8
GG1
 62
     1
 10
0.455
 20
0.6075
 30
0.0
  0
VERTEX
  5
765
  8
GG1
 62
     1
 10
0.455
 20
0.6225
 30
0.0
  0
SEQEND
  5
860
  8
GG1
 62
     1
  0
POLYLINE
  5
447
  8
GG1
 62
     1
 66
     1
 10
0.0
 20
0.0
 30
0.0
  0
VERTEX
  5
766
  8
GG1
 62
     1
 10
0.4525
 20
0.65
 30
0.0
  0
VERTEX
  5
767
  8
GG1
 62
     1
 10
0.4675
 20
0.65
 30
0.0
  0
SEQEND
  5
861
  8
GG1
 62
     1
  0
POLYLINE
  5
44B
  8
GG1
 62
     1
 66
     1
 10
0.0
 20
0.0
 30
0.0
  0
VERTEX
  5
768
  8
GG1
 62
     1
 10
0.46
 20
0.6425
 30
0.0
  0
VERTEX
  5
769
  8
GG1
 62
     1
 10
0.46
 20
0.6575
 30
0.0
  0
SEQEND
  5
862
  8
GG1
 62
     1
  0
POLYLINE
  5
44F
  8
GG1
 62
     1
 66
     1
 10
0.0
 20
0.0
 30
0.0
  0
VERTEX
  5
76A
  8
GG1
 62
     1
 10
0.4175
 20
0.66
 30
0.0
  0
VERTEX
  5
76B
  8
GG1
 62
     1
 10
0.4325
 20
0.66
 30
0.0
  0
SEQEND
  5
863
  8
GG1
 62
     1
  0
POLYLINE
  5
453
  8
GG1
 62
     1
 66
     1
 10
0.0
 20
0.0
 30
0.0
  0
VERTEX
  5
76C
  8
GG1
 62
     1
 10
0.425
 20
0.6525
 30
0.0
  0
VERTEX
  5
76D
  8
GG1
 62
     1
 10
0.425
 20
0.6675
 30
0.0
  0
SEQEND
  5
864
  8
GG1
 62
     1
  0
DIMENSION
  5
4C6
  8
DIMENSION
  2
*D5
 10
1.26
 20
1.2
 30
0.0
 11
1.89
 21
1.56
 31
0.0
 70
    32
  3
STANDARD
 13
0.9
 23
1.1
 33
0.0
 14
0.9
 24
1.2
 34
0.0
 50
90.0
1001
ACAD
1000
DSTYLE
1002
{
1070
     7
1000

1070
     6
1000

1070
     5
1000

1070
   340
1005
11
1070
   144
1040
1.0
1070
   173
1070
     1
1070
   283
1070
     1
1002
}
  0
DIMENSION
  5
51C
  8
DIMENSION
  2
*D10
 10
1.0
 20
0.74
 30
0.0
 11
1.81
 21
0.74
 31
0.0
 70
    32
  3
STANDARD
 13
0.9
 23
1.1
 33
0.0
 14
1.0
 24
1.1
 34
0.0
1001
ACAD
1000
DSTYLE
1002
{
1070
     7
1000

1070
     6
1000

1070
     5
1000

1070
   340
1005
11
1070
   144
1040
1.0
1070
   173
1070
     1
1070
   283
1070
     1
1002
}
  0
ENDSEC
  0
EOF
